<?xml version="1.0" encoding="UTF-8" standalone="no"?>
<svg
   xmlns:dc="http://purl.org/dc/elements/1.1/"
   xmlns:cc="http://creativecommons.org/ns#"
   xmlns:rdf="http://www.w3.org/1999/02/22-rdf-syntax-ns#"
   xmlns:svg="http://www.w3.org/2000/svg"
   xmlns="http://www.w3.org/2000/svg"
   xmlns:sodipodi="http://sodipodi.sourceforge.net/DTD/sodipodi-0.dtd"
   xmlns:inkscape="http://www.inkscape.org/namespaces/inkscape"
   version="1.1"
   id="Capa_1"
   x="0px"
   y="0px"
   viewBox="0 0 416.004 416.004"
   style="enable-background:new 0 0 416.004 416.004;"
   xml:space="preserve"
   sodipodi:docname="back.svg"
   inkscape:version="1.0.2-2 (e86c870879, 2021-01-15)"><metadata
   id="metadata49"><rdf:RDF><cc:Work
       rdf:about=""><dc:format>image/svg+xml</dc:format><dc:type
         rdf:resource="http://purl.org/dc/dcmitype/StillImage" /></cc:Work></rdf:RDF></metadata><defs
   id="defs47" /><sodipodi:namedview
   pagecolor="#ffffff"
   bordercolor="#666666"
   borderopacity="1"
   objecttolerance="10"
   gridtolerance="10"
   guidetolerance="10"
   inkscape:pageopacity="0"
   inkscape:pageshadow="2"
   inkscape:window-width="1366"
   inkscape:window-height="705"
   id="namedview45"
   showgrid="false"
   inkscape:zoom="1.2932568"
   inkscape:cx="208.002"
   inkscape:cy="208.002"
   inkscape:window-x="-8"
   inkscape:window-y="-8"
   inkscape:window-maximized="1"
   inkscape:current-layer="Capa_1" />
<g
   id="g6"
   transform="matrix(-1,0,0,1,416.004,0)">
	<g
   id="g4">
		<path
   d="m 281.602,195.204 -256,-192 C 20.802,-0.444 14.274,-1.02 8.866,1.7 3.426,4.42 0.002,9.956 0.002,16.004 v 384 c 0,6.048 3.424,11.584 8.832,14.304 2.272,1.12 4.736,1.696 7.168,1.696 3.392,0 6.784,-1.088 9.6,-3.2 l 256,-192 c 4.032,-3.008 6.4,-7.776 6.4,-12.8 0,-5.024 -2.368,-9.792 -6.4,-12.8 z"
   id="path2" />
	</g>
</g>
<g
   id="g12"
   transform="matrix(-1,0,0,1,416.004,0)">
	<g
   id="g10">
		<path
   d="m 400.002,0.004 h -32 c -8.832,0 -16,7.168 -16,16 v 384 c 0,8.832 7.168,16 16,16 h 32 c 8.832,0 16,-7.168 16,-16 v -384 c 0,-8.832 -7.168,-16 -16,-16 z"
   id="path8" />
	</g>
</g>
<g
   id="g14">
</g>
<g
   id="g16">
</g>
<g
   id="g18">
</g>
<g
   id="g20">
</g>
<g
   id="g22">
</g>
<g
   id="g24">
</g>
<g
   id="g26">
</g>
<g
   id="g28">
</g>
<g
   id="g30">
</g>
<g
   id="g32">
</g>
<g
   id="g34">
</g>
<g
   id="g36">
</g>
<g
   id="g38">
</g>
<g
   id="g40">
</g>
<g
   id="g42">
</g>
</svg>
