<?xml version="1.0" encoding="UTF-8" standalone="no"?>
<svg
   xmlns:dc="http://purl.org/dc/elements/1.1/"
   xmlns:cc="http://creativecommons.org/ns#"
   xmlns:rdf="http://www.w3.org/1999/02/22-rdf-syntax-ns#"
   xmlns:svg="http://www.w3.org/2000/svg"
   xmlns="http://www.w3.org/2000/svg"
   xmlns:xlink="http://www.w3.org/1999/xlink"
   xmlns:sodipodi="http://sodipodi.sourceforge.net/DTD/sodipodi-0.dtd"
   xmlns:inkscape="http://www.inkscape.org/namespaces/inkscape"
   id="Layer_1"
   data-name="Layer 1"
   viewBox="0 0 120 120"
   version="1.1"
   sodipodi:docname="cuaderno - copia.svg"
   inkscape:version="1.0.2-2 (e86c870879, 2021-01-15)">
  <metadata
     id="metadata33">
    <rdf:RDF>
      <cc:Work
         rdf:about="">
        <dc:format>image/svg+xml</dc:format>
        <dc:type
           rdf:resource="http://purl.org/dc/dcmitype/StillImage" />
      </cc:Work>
    </rdf:RDF>
  </metadata>
  <sodipodi:namedview
     pagecolor="#ffffff"
     bordercolor="#666666"
     borderopacity="1"
     objecttolerance="10"
     gridtolerance="10"
     guidetolerance="10"
     inkscape:pageopacity="0"
     inkscape:pageshadow="2"
     inkscape:window-width="1366"
     inkscape:window-height="705"
     id="namedview31"
     showgrid="false"
     inkscape:zoom="4.4833333"
     inkscape:cx="23.531599"
     inkscape:cy="63.919857"
     inkscape:window-x="-8"
     inkscape:window-y="-8"
     inkscape:window-maximized="1"
     inkscape:current-layer="Layer_1" />
  <defs
     id="defs14">
    <style
       id="style2">
.cls-1 { 
  /*fill:url(#linear-gradient);*/
}
.cls-2 { 
}
.cls-3 { 
}
.cls-4 { 
}
.cls-5 { 
}
.cls-6 { 
}</style>
    <linearGradient
       id="linear-gradient"
       x1="5.81"
       y1="80.67"
       x2="252.48"
       y2="67.51"
       gradientUnits="userSpaceOnUse">
      <stop
         offset="0.37"
         stop-color="#00c0c8"
         id="stop4" />
      <stop
         offset="1"
         stop-color="#0380e5"
         id="stop6" />
    </linearGradient>
    <linearGradient
       id="linear-gradient-2"
       x1="5.27"
       y1="70.52"
       x2="251.94"
       y2="57.36"
       xlink:href="#linear-gradient" />
    <linearGradient
       id="linear-gradient-3"
       x1="4.73"
       y1="60.37"
       x2="251.39"
       y2="47.21"
       xlink:href="#linear-gradient" />
    <linearGradient
       id="linear-gradient-4"
       x1="4.19"
       y1="50.22"
       x2="250.85"
       y2="37.06"
       xlink:href="#linear-gradient" />
    <linearGradient
       id="linear-gradient-5"
       x1="3.64"
       y1="40.07"
       x2="250.31"
       y2="26.91"
       xlink:href="#linear-gradient" />
    <linearGradient
       id="linear-gradient-6"
       x1="4.91"
       y1="63.88"
       x2="251.58"
       y2="50.71"
       xlink:href="#linear-gradient" />
  </defs>
  <title
     id="title16">Artboard 15</title>
  <path
     class="cls-1"
     d="M18.36,84.55a1.69,1.69,0,0,0,1.69-1.69,5.09,5.09,0,0,1,10.18,0,1.7,1.7,0,0,0,3.4,0,8.49,8.49,0,1,0-17,0A1.69,1.69,0,0,0,18.36,84.55Z"
     id="path18" />
  <path
     class="cls-2"
     d="M18.36,74.37a1.69,1.69,0,0,0,1.69-1.69,5.09,5.09,0,0,1,10.18,0,1.7,1.7,0,0,0,3.4,0,8.49,8.49,0,0,0-17,0A1.69,1.69,0,0,0,18.36,74.37Z"
     id="path20" />
  <path
     class="cls-3"
     d="M18.36,64.2a1.7,1.7,0,0,0,1.69-1.7,5.09,5.09,0,0,1,10.18,0,1.7,1.7,0,0,0,3.4,0,8.49,8.49,0,0,0-17,0A1.7,1.7,0,0,0,18.36,64.2Z"
     id="path22" />
  <path
     class="cls-4"
     d="M18.36,54a1.7,1.7,0,0,0,1.69-1.7,5.09,5.09,0,1,1,10.18,0,1.7,1.7,0,0,0,3.4,0,8.49,8.49,0,0,0-17,0A1.7,1.7,0,0,0,18.36,54Z"
     id="path24" />
  <path
     class="cls-5"
     d="M20.05,42.14a5.09,5.09,0,0,1,10.18,0,1.7,1.7,0,0,0,3.4,0,8.49,8.49,0,0,0-17,0,1.7,1.7,0,1,0,3.39,0Z"
     id="path26" />
  <path
     class="cls-6"
     d="M101.49,11.61h-78v12A8.5,8.5,0,0,0,16.66,32a1.7,1.7,0,1,0,3.39,0,5.09,5.09,0,0,1,10.18,0,1.7,1.7,0,1,0,3.4,0,8.5,8.5,0,0,0-6.79-8.31V15H42.11v91.61H26.84V94.73a1.7,1.7,0,0,0-3.39,0v3.08A5.08,5.08,0,1,1,30.23,93a1.7,1.7,0,0,0,3.4,0,8.49,8.49,0,1,0-10.18,8.31V110h78a6.79,6.79,0,0,0,6.78-6.78V18.39A6.79,6.79,0,0,0,101.49,11.61Zm-56,95V15H86.22v91.6Zm44.11,0V15H94.7v91.6Zm15.27-3.39a3.39,3.39,0,0,1-3.39,3.39h-3.4V15h3.4a3.38,3.38,0,0,1,3.39,3.38Z"
     id="path28" />
</svg>
