<?xml version="1.0" encoding="UTF-8" standalone="no"?>
<svg
   xmlns:dc="http://purl.org/dc/elements/1.1/"
   xmlns:cc="http://creativecommons.org/ns#"
   xmlns:rdf="http://www.w3.org/1999/02/22-rdf-syntax-ns#"
   xmlns:svg="http://www.w3.org/2000/svg"
   xmlns="http://www.w3.org/2000/svg"
   xmlns:xlink="http://www.w3.org/1999/xlink"
   xmlns:sodipodi="http://sodipodi.sourceforge.net/DTD/sodipodi-0.dtd"
   xmlns:inkscape="http://www.inkscape.org/namespaces/inkscape"
   id="Layer_1"
   data-name="Layer 1"
   viewBox="0 0 120 120"
   version="1.1"
   sodipodi:docname="habla-positivo-sf.svg"
   inkscape:version="1.0.2-2 (e86c870879, 2021-01-15)">
  <metadata
     id="metadata24">
    <rdf:RDF>
      <cc:Work
         rdf:about="">
        <dc:format>image/svg+xml</dc:format>
        <dc:type
           rdf:resource="http://purl.org/dc/dcmitype/StillImage" />
      </cc:Work>
    </rdf:RDF>
  </metadata>
  <sodipodi:namedview
     pagecolor="#ffffff"
     bordercolor="#666666"
     borderopacity="1"
     objecttolerance="10"
     gridtolerance="10"
     guidetolerance="10"
     inkscape:pageopacity="0"
     inkscape:pageshadow="2"
     inkscape:window-width="1366"
     inkscape:window-height="705"
     id="namedview22"
     showgrid="false"
     inkscape:zoom="4.4833333"
     inkscape:cx="60"
     inkscape:cy="45.130112"
     inkscape:window-x="-8"
     inkscape:window-y="-8"
     inkscape:window-maximized="1"
     inkscape:current-layer="Layer_1" />
  <defs
     id="defs11">
    <style
       id="style2">.cls-1 {  }
.cls-2 { fill:url(#linear-gradient-2); }
.cls-3 {  }
</style>
    <linearGradient
       id="linear-gradient"
       x1="-61.43"
       y1="62.76"
       x2="127"
       y2="27.68"
       gradientUnits="userSpaceOnUse">
      <stop
         offset="0.37"
         stop-color="#00c0c8"
         id="stop4" />
      <stop
         offset="1"
         stop-color="#0380e5"
         id="stop6" />
    </linearGradient>
    <linearGradient
       id="linear-gradient-2"
       x1="-58.71"
       y1="77.38"
       x2="129.72"
       y2="42.29"
       xlink:href="#linear-gradient" />
    <linearGradient
       id="linear-gradient-3"
       x1="-58.72"
       y1="77.3"
       x2="129.71"
       y2="42.21"
       xlink:href="#linear-gradient" />
  </defs>
  <title
     id="title13">Artboard 16</title>
  <path
     d="M89.76,38.45A2.41,2.41,0,0,0,87.35,36H51a2.42,2.42,0,0,0,0,4.84H87.35A2.42,2.42,0,0,0,89.76,38.45Z"
     id="path15"
     style="" />
  <path
     d="M103.33,68.48a2.41,2.41,0,0,0-3.15-1.33,2.42,2.42,0,0,0-1.33,3.15l6.26,15.48L87.3,77.94a2.42,2.42,0,0,0-1.92,0,40.59,40.59,0,0,1-16,3.24c-22.62,0-37.81-17.79-37.81-34.4,0-19,17-34.39,37.81-34.39s37.8,15.43,37.8,34.39a34.5,34.5,0,0,1-.38,4.87,2.43,2.43,0,0,0,3.84,2.31,2.47,2.47,0,0,0,.95-1.59,39,39,0,0,0,.43-5.59A37.43,37.43,0,0,0,99.43,19,44.27,44.27,0,0,0,69.36,7.53,44.28,44.28,0,0,0,39.28,19,37.37,37.37,0,0,0,26.87,43.43l-.08.78-.65.43A31.21,31.21,0,0,0,11.75,70.49a29.87,29.87,0,0,0,5.89,17.78l.53.73-6.24,15.45a2.41,2.41,0,0,0,.56,2.64,2.44,2.44,0,0,0,2.66.48L32.78,99.8l.62.23a37,37,0,0,0,12.91,2.3h.29a36.64,36.64,0,0,0,18.21-4.93A33.3,33.3,0,0,0,76.47,86l.38-.63.73-.13A45.24,45.24,0,0,0,85.68,83l.62-.24,22.31,9.83a2.43,2.43,0,0,0,2.65-.48,2.4,2.4,0,0,0,.56-2.64ZM68.2,88.73a31.42,31.42,0,0,1-21.87,8.75h-.19A31.85,31.85,0,0,1,33.7,94.94a2.44,2.44,0,0,0-1.93,0l-13.12,5.79L23.2,89.48A2.43,2.43,0,0,0,22.8,87a25.19,25.19,0,0,1-6.21-16.51,25.62,25.62,0,0,1,8-18.38L26.73,50l.56,3A39.26,39.26,0,0,0,38.77,74,43.75,43.75,0,0,0,67.13,86l3.72.17Z"
     id="path17" />
  <path
     d="M48.54,54.62A2.43,2.43,0,0,0,51,57H75.22a2.42,2.42,0,1,0,0-4.84H51A2.43,2.43,0,0,0,48.54,54.62Z"
     id="path19" />
</svg>
