<svg id="Layer_1" data-name="Layer 1" xmlns="http://www.w3.org/2000/svg" viewBox="0 0 120 120"><title>Artboard 19 copy 4</title><path d="M42,50A11.11,11.11,0,0,0,53.11,38.93v-.11a1.4,1.4,0,0,0-2.51-.75,5.56,5.56,0,1,1-9-6.47,5.85,5.85,0,0,1,1.29-1.29,1.37,1.37,0,0,0-.86-2.5A11.12,11.12,0,0,0,42,50ZM38.57,31.31a8.34,8.34,0,0,0,4.15,11,8.48,8.48,0,0,0,3.44.75,8.3,8.3,0,0,0,3.43-.74,8.34,8.34,0,0,1-15.1-7.07,8.41,8.41,0,0,1,4.08-4.05Z"/><path d="M75.62,35.1H77v1.39a1.39,1.39,0,1,0,2.78,0V35.1h1.39a1.39,1.39,0,1,0,0-2.78H79.79V30.93a1.39,1.39,0,1,0-2.78,0v1.39H75.62a1.39,1.39,0,0,0,0,2.78Z"/><path d="M84.83,51h1.39v1.39a1.39,1.39,0,0,0,2.78,0V51h1.39a1.39,1.39,0,0,0,0-2.78H89V46.83a1.39,1.39,0,0,0-2.78,0v1.39H84.83a1.39,1.39,0,0,0,0,2.78Z"/><path d="M64.44,43.85l4.12-6.7-3.42-2.1-3,5-3-5-3.42,2.1,4.1,6.69-.16.26L25.73,99.16h-5.9v4h84.54v-4H98.3ZM50.6,99.16,62.1,79.85,73.6,99.16Zm27.67,0L62.1,72,45.92,99.16H30.44L62.09,47.68,93.6,99.16Z"/></svg>