<?xml version="1.0" encoding="UTF-8" standalone="no"?>
<svg
   xmlns:dc="http://purl.org/dc/elements/1.1/"
   xmlns:cc="http://creativecommons.org/ns#"
   xmlns:rdf="http://www.w3.org/1999/02/22-rdf-syntax-ns#"
   xmlns:svg="http://www.w3.org/2000/svg"
   xmlns="http://www.w3.org/2000/svg"
   xmlns:sodipodi="http://sodipodi.sourceforge.net/DTD/sodipodi-0.dtd"
   xmlns:inkscape="http://www.inkscape.org/namespaces/inkscape"
   id="Layer_1"
   data-name="Layer 1"
   viewBox="0 0 120 120"
   version="1.1"
   sodipodi:docname="icon-exito-realizacion.svg"
   inkscape:version="1.0.2-2 (e86c870879, 2021-01-15)">
  <metadata
     id="metadata11">
    <rdf:RDF>
      <cc:Work
         rdf:about="">
        <dc:format>image/svg+xml</dc:format>
        <dc:type
           rdf:resource="http://purl.org/dc/dcmitype/StillImage" />
      </cc:Work>
    </rdf:RDF>
  </metadata>
  <defs
     id="defs9" />
  <sodipodi:namedview
     pagecolor="#ffffff"
     bordercolor="#666666"
     borderopacity="1"
     objecttolerance="10"
     gridtolerance="10"
     guidetolerance="10"
     inkscape:pageopacity="0"
     inkscape:pageshadow="2"
     inkscape:window-width="1366"
     inkscape:window-height="705"
     id="namedview7"
     showgrid="false"
     inkscape:zoom="3.3962401"
     inkscape:cx="60"
     inkscape:cy="60"
     inkscape:window-x="-8"
     inkscape:window-y="-8"
     inkscape:window-maximized="1"
     inkscape:current-layer="Layer_1" />
  <title
     id="title2">Artboard 18 copy</title>
  <path
     d="M 97.539827,108.53717 C 90.248222,97.677331 83.577184,86.972642 76.161469,76.857484 c -1.908228,-2.60636 -6.019449,-3.599258 -9.153287,-5.243747 -0.294766,-0.155141 -0.946356,0.23271 -1.349721,0.496449 -0.713645,0.449908 -1.38075,0.992899 -2.063368,1.551404 -3.614773,2.652902 -3.769913,2.870099 -7.260574,-0.232709 -2.249537,-1.939256 -3.971596,-1.753087 -6.531414,-0.558506 a 20.168259,20.168259 0 0 0 -8.982631,7.974218 C 35.4371,89.346291 29.712417,97.646306 24.127362,106.00838 c -0.465422,0.69813 -0.868787,1.41178 -1.551407,2.52879 2.621876,0 4.886926,-0.0931 7.136462,0 0.667105,0 1.272152,0.71365 1.908228,1.1015 -0.605048,0.29476 -1.22561,0.85327 -1.846171,0.85327 -5.631599,0 -11.278712,0.1086 -16.91031,0 -1.023927,0 -2.606359,-0.68262 -2.8700978,-1.42729 A 4.4990732,4.4990732 0 0 1 10.645655,105.5895 C 17.285667,95.458825 24.034277,85.421237 30.813914,75.30608 31.620645,74.095983 32.36532,72.839346 33.24962,71.691307 a 2.6839298,2.6839298 0 0 1 4.654214,0 c 1.117011,1.551405 2.109909,3.102809 3.335519,4.87141 3.894025,-5.833281 7.462256,-11.542449 11.418338,-16.956852 a 15.948438,15.948438 0 0 0 3.195893,-10.658149 c -0.263739,-7.338142 0,-14.691801 0,-22.029944 a 4.3439328,4.3439328 0 0 1 0,-1.272152 c 0.294767,-0.930843 0.698132,-1.815144 1.054955,-2.714958 a 10.068615,10.068615 0 0 1 0.930842,2.854585 c 0.09309,5.554027 0,11.108056 0,16.662084 v 8.300015 h 4.250849 a 13.016284,13.016284 0 0 0 0.170654,-1.660003 c 0,-11.620019 0,-23.271068 0,-34.844547 0,-1.551404 -0.217196,-2.652901 -2.202994,-2.621873 -1.551404,0 -2.389163,0.527478 -2.26505,2.234023 a 13.962641,13.962641 0 0 1 0,3.320004 c -0.108594,0.651591 -0.713647,1.210097 -1.085985,1.815144 l -0.837757,-0.341308 c 0,-2.280565 -0.09308,-4.576644 0,-6.841695 a 2.7149579,2.7149579 0 0 1 1.287666,-1.753086 5.2747755,5.2747755 0 0 1 7.524312,2.978696 h 13.636845 c 4.499074,0 5.755712,1.256638 5.78674,5.771225 v 4.049166 h 14.536651 c 3.894028,0 5.305808,2.078883 2.947668,5.073092 -4.064676,5.197206 -4.018128,9.789364 0,14.971055 2.35814,2.994211 0.93084,5.073092 -2.978688,5.073092 H 80.676057 c -3.707858,0 -5.259262,-1.551404 -5.29029,-5.336831 0,-2.528789 0,-5.073092 0,-7.757022 H 64.277711 a 52.049623,52.049623 0 0 1 0,6.608983 29.476686,29.476686 0 0 0 7.276087,24.279481 106.27121,106.27121 0 0 1 7.214031,10.766747 c 1.132526,-1.628974 2.078881,-3.102808 3.102809,-4.468046 1.675517,-2.342621 3.661315,-2.342621 5.274775,0 q 11.185629,16.879283 22.247137,33.587907 a 4.2198203,4.2198203 0 0 1 0.57401,3.45964 4.0646799,4.0646799 0 0 1 -3.1028,1.41178 q -34.317063,0.12411 -68.680674,0 A 7.4001997,7.4001997 0 0 1 35.85598,109.6852 c 0.791216,-0.38785 1.551403,-1.11701 2.373648,-1.11701 q 28.064908,-0.0931 56.114303,0 z m 3.428603,-62.552636 c -1.644498,-2.91664 -2.745998,-5.29029 -4.297394,-7.446742 a 4.8403822,4.8403822 0 0 1 0,-6.081506 c 1.551396,-2.202994 2.637396,-4.654214 4.111224,-7.291601 H 84.089146 c 0,3.661315 0,7.151976 0,10.642636 0,3.894025 -0.698131,4.654213 -4.390474,5.709167 a 3.4906602,3.4906602 0 0 0 -2.03234,2.435706 c 0,0.589534 1.349722,1.970284 2.125424,1.985797 6.810666,0.108594 13.621332,0.04655 21.176674,0.04654 z M 64.448364,15.17364 v 17.623955 h 17.577414 c 0,-4.964495 0,-9.991045 0,-15.033109 A 2.2805647,2.2805647 0 0 0 79.605588,15.17364 Z M 35.468128,72.032615 11.142106,108.53717 c 3.102808,0 5.352345,0.0776 7.55534,0 a 2.6994438,2.6994438 0 0 0 1.846171,-0.97739 C 27.012973,97.956586 33.420274,88.322364 39.889631,78.610571 Z m 49.055411,0 c -1.427291,2.078884 -2.373647,3.583746 -3.459631,4.964495 a 2.3271068,2.3271068 0 0 0 0,3.102809 c 6.050477,8.967119 12.023385,17.980774 18.058344,26.963421 0.38785,0.55851 1.054948,1.28767 1.551408,1.33419 2.40467,0.13964 4.82485,0 8.05178,0 C 100.56505,96.110415 92.73047,84.288712 84.523539,72.04813 Z M 59.995834,52.22118 47.181232,71.443082 a 10.270298,10.270298 0 0 0 4.033652,-1.442806 3.2114073,3.2114073 0 0 1 4.359448,0.356823 c 1.380749,1.22561 2.963182,2.234023 4.654213,3.459632 3.599258,-3.769913 7.369172,-6.500384 12.411236,-1.551404 l 0.108592,-0.915329 z M 77.511191,39.809943 c 1.985798,-0.605047 4.87141,0 4.312904,-3.102808 -0.38785,-2.156452 -2.42019,-2.063368 -4.312904,-1.551404 z"
     id="path4"
     style="stroke-width:1.55141" />
</svg>
