<svg id="Layer_1" data-name="Layer 1" xmlns="http://www.w3.org/2000/svg" viewBox="0 0 120 120"><title>Artboard 17 copy 4</title><path d="M104.4,100.91H95.3l-3.55-6.35V78.11A8.18,8.18,0,0,0,86,70.25L71.56,65.78V50.54a6.31,6.31,0,0,0-1-3.5l-.35-.54.61-.21a9.66,9.66,0,0,0-2.28-18.76l-.46,0v-8a8.67,8.67,0,0,0-8.66-8.67A1.33,1.33,0,0,0,58,12.16V27.28h-.5a5.36,5.36,0,0,0-3.92,1.52,5.46,5.46,0,0,0,3.69,9.39H58l-.06.55a24.94,24.94,0,0,1-2.67,8.85,6.38,6.38,0,0,0-.71,2.94V66.41L50,74.58,26.24,89.51a7.13,7.13,0,0,0-3.35,6.07v5.33H14.33a1.33,1.33,0,0,0,0,2.66H104.4a1.33,1.33,0,0,0,0-2.66ZM68,30.14l.57.08a7,7,0,0,1,0,13.87l-.57.08ZM57.35,35.53a2.77,2.77,0,0,1-2-.86,2.72,2.72,0,0,1-.78-2,2.78,2.78,0,0,1,2.79-2.74l.12.49v-.5l.53,0v5.63Zm-.17,15a3.75,3.75,0,0,1,.41-1.71A27.44,27.44,0,0,0,60.7,36.22V13.6l.67.24a6,6,0,0,1,4,5.66V45.72A1.34,1.34,0,0,0,66.3,47a3.71,3.71,0,0,1,2.59,3.55V65.43H57.18ZM28,100.91l3.21-2.57,7.93-3.89a1.33,1.33,0,0,0,.61-1.78A1.36,1.36,0,0,0,39,92a1.34,1.34,0,0,0-1,.07l-8.11,4a2,2,0,0,0-.24.16l-4.06,3.26V95.58a4.49,4.49,0,0,1,2.11-3.82l24-15.1a1.38,1.38,0,0,0,.45-.48l4.49-8.09H67.74L61.93,76.8a23,23,0,0,1-9,7.92l-3.79,1.86a1.35,1.35,0,0,0-.61,1.79,1.33,1.33,0,0,0,1.78.6l3.79-1.86a25.73,25.73,0,0,0,10.08-8.83l1.65-2.49,15.67,5.77V98.84a4.89,4.89,0,0,0,.22,1.42l.2.65Zm58.21,0a2.08,2.08,0,0,1-2.08-2.07V80.64a1.33,1.33,0,0,0-.87-1.25L67.32,73.52l3.46-5.2,14.39,4.47a5.54,5.54,0,0,1,3.92,5.32v16.8a1.29,1.29,0,0,0,.16.64l3,5.36Z"/></svg>