<svg id="Layer_1" data-name="Layer 1" xmlns="http://www.w3.org/2000/svg" viewBox="0 0 120 120"><title>Artboard 20 copy</title><path d="M99.51,26.94A49.89,49.89,0,0,0,63.8,12h-.37a50.47,50.47,0,0,0-.13,100.93h.23a50.67,50.67,0,0,0,50.54-49.71A50.06,50.06,0,0,0,99.51,26.94Zm-1.7,69.81a48.32,48.32,0,0,1-34.3,14.13h-.23A48.42,48.42,0,0,1,29.82,27.74,48.22,48.22,0,0,1,64.44,14,48.71,48.71,0,0,1,112,62.5,48,48,0,0,1,97.81,96.75Z"/><path d="M79.23,66.67,76.15,63.6a2.46,2.46,0,0,0-.22-.17l-1.38-1.06,1.13-.78.3-.19a1,1,0,0,0,.19-.13L81,56.49q3-3.06,6.1-6.1a8.1,8.1,0,0,0,2.56-6.83,8.08,8.08,0,0,0-9.53-7.05,8.71,8.71,0,0,0-4.57,2.61q-3.47,3.56-7,7.06L66,48.7l-1.23,1.23-1.37,1.36-.84-1.07a2.11,2.11,0,0,0-.19-.23q-5.5-5.52-11-11a7.92,7.92,0,0,0-5.17-2.4l-.7,0a7.83,7.83,0,0,0-7.2,4.53,8,8,0,0,0,1.61,9.14L51.06,61.34a1.28,1.28,0,0,0,.21.16c.09.07.2.14.33.25l1.14.86-1.2.77-.32.2-.18.11c-3.72,3.71-7.46,7.43-11.17,11.17a7.5,7.5,0,0,0-2.29,6.38A7.58,7.58,0,0,0,42.86,88a7.52,7.52,0,0,0,8.36-1.89q3.95-3.88,7.84-7.81l3.42-3.43.31-.29.94-.89.83,1,.21.24L67.85,78c2.69,2.71,5.38,5.41,8.1,8.09a7.69,7.69,0,0,0,6.85,2.24A7.47,7.47,0,0,0,89.24,83a7.64,7.64,0,0,0-2-8.25C84.61,72,81.92,69.35,79.23,66.67ZM86.29,82.2a4.69,4.69,0,0,1-4.36,3.18,5,5,0,0,1-4-1.6l-12.2-12.2a3,3,0,0,0-2.1-1h0a3,3,0,0,0-2.09,1L49.24,83.85a5.29,5.29,0,0,1-3.72,1.59,5,5,0,0,1-3.88-8,7.06,7.06,0,0,1,.69-.76L54.56,64.43a2.61,2.61,0,0,0,0-4l-4.17-4.16-8.33-8.34a5,5,0,0,1-1.33-4.68,4.79,4.79,0,0,1,3.12-3.47A5,5,0,0,1,49.23,41c2.55,2.53,5.09,5.08,7.63,7.62l4.72,4.72a2.61,2.61,0,0,0,3.31.58,3.43,3.43,0,0,0,.7-.57L75.83,43.16,78,41a4.78,4.78,0,0,1,5-1.35,4.88,4.88,0,0,1,3.5,3.62,5.65,5.65,0,0,1,.12.84l0,.38v.09A5.37,5.37,0,0,1,85,48.11l-9,9-3.3,3.3a2.64,2.64,0,0,0,0,4.13q6.17,6.18,12.35,12.35A4.84,4.84,0,0,1,86.29,82.2Z"/></svg>