<svg id="Layer_1" data-name="Layer 1" xmlns="http://www.w3.org/2000/svg" viewBox="0 0 120 120"><title>Artboard 18 copy 4</title><path d="M101.17,81.87l-3.32-5.24a1.33,1.33,0,0,0-2.25,1.42l3.33,5.25a2.89,2.89,0,0,1-.41,3.57,2.85,2.85,0,0,1-2.27.81,2.88,2.88,0,0,1-2.09-1.2L79.79,66,74.08,52.29V50.7a1.33,1.33,0,1,0-2.66,0V75.59H49.8V50.7a1.33,1.33,0,1,0-2.66,0l0,1.8L41.38,66.12,27.06,86.48a2.87,2.87,0,0,1-4.35.39,2.88,2.88,0,0,1-.41-3.57L35,63.22a1.11,1.11,0,0,0,.14-.29L40.6,46.75a14.48,14.48,0,0,1,13.74-9.87H66.89a14.46,14.46,0,0,1,13.73,9.87l5.45,16.18a1.08,1.08,0,0,0,.13.29l2.49,3.92a1.36,1.36,0,0,0,1.84.41,1.34,1.34,0,0,0,.41-1.83l-2.42-3.85-5.37-16A17.21,17.21,0,0,0,68.86,34.33l-1-.12.7-.72a11,11,0,0,0,3.08-7.64v-2.4a11,11,0,0,0-22,0v2.4a11,11,0,0,0,3.08,7.64l.7.72-1,.12A17.21,17.21,0,0,0,38.08,45.9L32.66,62,20.05,81.87a5.53,5.53,0,0,0,3.82,8.42l.67.1-.29.58a10.51,10.51,0,0,0,12.6,13.83l23.76-6.39,23.77,6.39A10.52,10.52,0,0,0,97,91.06L96.94,91v-.64l.42-.06a5.53,5.53,0,0,0,3.81-8.42Zm-48.92-56v-2.4a8.37,8.37,0,0,1,16.73,0v2.4a8.37,8.37,0,1,1-16.73,0ZM74.08,59.27l3.34,8a1,1,0,0,0,.13.25L89,83.82l-15-7.63ZM43.67,67.48a1.48,1.48,0,0,0,.14-.25l3.33-7.94v16.9l-15,7.63ZM94.4,97.59a7.85,7.85,0,0,1-7.29,4.91,7.58,7.58,0,0,1-2-.27L65.59,97l.78-.62a5.77,5.77,0,0,0,2.22-4.56l0-.77.64.08,11.44,2.7a1.34,1.34,0,0,0,1.6-1,1.26,1.26,0,0,0-.16-1,1.34,1.34,0,0,0-.83-.6L67.56,88a.91.91,0,0,0-.23,0h-.2L67,87.81a6.44,6.44,0,0,0-.61-.55,5.75,5.75,0,0,0-4.93-1.1L40,91.23a1.33,1.33,0,1,0,.61,2.59l21.48-5.07a3.15,3.15,0,0,1,1.54,6.1l-3.26.87-.24-.45h0l.13.48-24.07,6.48a7.86,7.86,0,0,1-5.62-14.59L49,78.25H72.27l18.41,9.39A7.82,7.82,0,0,1,94.4,97.59Z"/><path d="M92.13,72.68a1.38,1.38,0,0,0,2-1.94,1.32,1.32,0,0,0-.94-.39h0a1.29,1.29,0,0,0-.94.39A1.34,1.34,0,0,0,92.13,72.68Z"/></svg>