<svg id="Layer_1" data-name="Layer 1" xmlns="http://www.w3.org/2000/svg" viewBox="0 0 120 120"><title>Artboard 19 copy</title><path d="M101.58,69.52c-.73.07-1.47.18-2.2.29l-5.24.75c-3.19.46-6.39.92-9.59,1.36A3.86,3.86,0,0,0,82,73.43a3.8,3.8,0,0,0-.74,2.82,4.16,4.16,0,0,0,1.23,2.4l3.21,3.2-.35.36c-.27.27-.53.55-.79.82-.55.58-1.12,1.18-1.72,1.72-7.73,7-16.76,9.82-26.86,8.34A31.23,31.23,0,0,1,34.9,80.31,30.2,30.2,0,0,1,29,65.25a51.14,51.14,0,0,1-.17-6.09A4.16,4.16,0,0,0,27.47,56a3.72,3.72,0,0,0-2.55-1,3.27,3.27,0,0,0-.54,0c-1.65.2-3.32.45-4.94.7l-.17,0a3.78,3.78,0,0,0-3.37,3.65,41.57,41.57,0,0,0,.64,10.06A43.85,43.85,0,0,0,29.89,94.05C40.41,103.9,53,107.94,67.31,106a43.29,43.29,0,0,0,21.78-9.56c1.32-1.07,2.6-2.27,3.83-3.42l1.74-1.63.35-.31L96.89,93a3.61,3.61,0,0,0,3.58,1,3.53,3.53,0,0,0,2.83-2.67,12.36,12.36,0,0,0,.29-1.67l.82-5.66c.48-3.31,1-6.62,1.46-9.93a4,4,0,0,0-1.05-3.37A3.85,3.85,0,0,0,101.58,69.52Zm1.67,4.08q-.19,1.5-.42,3l-1.91,13.15a.91.91,0,0,0,0,.17,1.6,1.6,0,0,1-.15.64,1.57,1.57,0,0,1-.81.82,1.33,1.33,0,0,1-1.22-.32c-1-1-2-2-3-3l-1-1-.27.33c-.41.5-.81,1-1.24,1.49a41.42,41.42,0,0,1-25.26,14.41,47,47,0,0,1-7.47.62c-10.64,0-20.24-3.9-28.63-11.66A41.94,41.94,0,0,1,18.5,59.77a1.3,1.3,0,0,1,1.32-1.43l1.51-.22c1.1-.15,2.19-.31,3.29-.45a1.32,1.32,0,0,1,1.14.28,1.41,1.41,0,0,1,.38,1.18A34.87,34.87,0,0,0,54.79,95.57a34.25,34.25,0,0,0,21-2.86A34.87,34.87,0,0,0,89.18,81.56L86.71,79.1l-2.28-2.26A1.43,1.43,0,0,1,84,75.37a1.3,1.3,0,0,1,1.26-.88l8.87-1.27,4.07-.58,3.66-.51a1.27,1.27,0,0,1,1.08.34A1.32,1.32,0,0,1,103.25,73.6Z"/><path d="M20.69,52.91c4.49-.66,9-1.29,13.47-1.92l2.25-.32a5.1,5.1,0,0,0,2.51-.8A3.93,3.93,0,0,0,39.36,44l-1.8-1.81L36.3,40.93l.43-.5.27-.32a32.52,32.52,0,0,1,23.81-10.6,32.31,32.31,0,0,1,6.6.69,32.16,32.16,0,0,1,25.17,26A38,38,0,0,1,93,63.6a3.69,3.69,0,0,0,1.25,2.9,3.92,3.92,0,0,0,3.16,1l5.17-.76A3.86,3.86,0,0,0,105.87,63a44.61,44.61,0,0,0-14-34.07c-10.76-10-23.61-14-38.19-11.82a43.5,43.5,0,0,0-21.35,9.73c-1.16.95-2.24,2-3.38,3l-1.62,1.51-.36.33-.34-.35-.56-.6c-.43-.46-.87-.94-1.35-1.37a3.56,3.56,0,0,0-3.9-.75,3.5,3.5,0,0,0-2.44,2.93q-.82,5.49-1.61,11L16,47.88a4.94,4.94,0,0,0,0,2.3A4,4,0,0,0,20.69,52.91Zm-2.2-4.09c.17-1.27.36-2.55.55-3.82l1.8-12.39c0-.13,0-.26.05-.38a1.26,1.26,0,0,1,.85-1.15,1.22,1.22,0,0,1,1.32.37l4.23,4.17.18-.21c.39-.47.79-.94,1.19-1.4A41.62,41.62,0,0,1,53.94,19.7,41.25,41.25,0,0,1,88.7,29.58a41.43,41.43,0,0,1,13.51,22.5,41.91,41.91,0,0,1,1,10.55,1.34,1.34,0,0,1-1.32,1.5l-4.55.66a2.83,2.83,0,0,1-.5,0,1.23,1.23,0,0,1-.88-.3,1.63,1.63,0,0,1-.39-1.33,32.81,32.81,0,0,0-3.23-16.28C87,36.09,78.47,29.55,67,27.48c-11.07-2-21.12,1-29.87,8.78a33.89,33.89,0,0,0-2.5,2.58c-.51.57-1,1.17-1.48,1.79l-.39.48,3.5,3.5,1.12,1.11a1.33,1.33,0,0,1,.42,1.4,1.24,1.24,0,0,1-1.14.86L20,50.34a1.29,1.29,0,0,1-1.53-1.52Z"/></svg>