<?xml version="1.0" encoding="UTF-8" standalone="no"?>
<svg
   xmlns:dc="http://purl.org/dc/elements/1.1/"
   xmlns:cc="http://creativecommons.org/ns#"
   xmlns:rdf="http://www.w3.org/1999/02/22-rdf-syntax-ns#"
   xmlns:svg="http://www.w3.org/2000/svg"
   xmlns="http://www.w3.org/2000/svg"
   xmlns:sodipodi="http://sodipodi.sourceforge.net/DTD/sodipodi-0.dtd"
   xmlns:inkscape="http://www.inkscape.org/namespaces/inkscape"
   id="Layer_1"
   data-name="Layer 1"
   viewBox="0 0 120 120"
   version="1.1"
   sodipodi:docname="icon-iniciacion.svg"
   inkscape:version="1.0.2-2 (e86c870879, 2021-01-15)">
  <metadata
     id="metadata19">
    <rdf:RDF>
      <cc:Work
         rdf:about="">
        <dc:format>image/svg+xml</dc:format>
        <dc:type
           rdf:resource="http://purl.org/dc/dcmitype/StillImage" />
      </cc:Work>
    </rdf:RDF>
  </metadata>
  <defs
     id="defs17" />
  <sodipodi:namedview
     pagecolor="#ffffff"
     bordercolor="#666666"
     borderopacity="1"
     objecttolerance="10"
     gridtolerance="10"
     guidetolerance="10"
     inkscape:pageopacity="0"
     inkscape:pageshadow="2"
     inkscape:window-width="1366"
     inkscape:window-height="705"
     id="namedview15"
     showgrid="false"
     inkscape:zoom="3.3962401"
     inkscape:cx="60"
     inkscape:cy="60"
     inkscape:window-x="-8"
     inkscape:window-y="-8"
     inkscape:window-maximized="1"
     inkscape:current-layer="Layer_1" />
  <title
     id="title2">Artboard 18</title>
  <g
     id="g26"
     transform="matrix(1.5772913,0,0,1.5772913,-36.237366,-32.76533)">
    <path
       d="m 62.15,54.41 c 0,0.57 -0.15,1.14 -0.15,1.71 0,8.26 0,16.52 0,24.78 a 3.11,3.11 0 0 0 1.64,3 c 3,1.83 5.85,3.73 8.75,5.62 0.65,0.43 1.71,0.87 0.94,1.84 -0.24,0.3 -1.45,0.19 -2,-0.13 C 67.87,89.1 64.47,86.85 61,84.61 l -10.19,6.54 c -0.36,0.23 -0.77,0.58 -1.15,0.56 -0.38,-0.02 -1,-0.33 -1.14,-0.65 a 1.44,1.44 0 0 1 0.57,-1.18 c 1.34,-1 2.75,-1.83 4.13,-2.72 C 55,86 56.88,84.91 58.61,83.63 A 3.21,3.21 0 0 0 59.9,81.57 C 60,72.76 60,64 60,55.14 a 11.24,11.24 0 0 0 -0.23,-1.21 c -0.6,0.73 -1.1,1.09 -1.25,1.57 -1,3.13 -2,6.28 -2.91,9.45 -0.23,0.82 0,1.76 -0.22,2.61 -0.09,0.41 -0.6,0.74 -0.91,1.1 -0.34,-0.35 -1,-0.7 -1,-1 a 17.3,17.3 0 0 1 0.4,-4.07 c 0.75,-2.81 1.74,-5.56 2.51,-8.37 0.51,-1.84 1.4,-3.11 3.58,-3 0,-3.78 0,-7.46 0,-11.15 0,-0.48 -0.67,-1 -1,-1.43 -0.49,0.36 -1.22,0.62 -1.42,1.1 -0.92,2.23 -1.63,4.55 -2.56,6.78 -0.23,0.54 -1,0.86 -1.53,1.28 -0.11,-0.67 -0.47,-1.42 -0.29,-2 0.7,-2.26 1.55,-4.47 2.39,-6.68 0.84,-2.21 2.54,-3 4.85,-2.17 a 2.32,2.32 0 0 0 1.47,0 c 2,-0.77 3.82,-0.14 4.57,1.91 q 4.8,13 9.47,26 a 7.75,7.75 0 0 1 0.37,2.75 1.57,1.57 0 0 1 -0.93,1.06 c -0.21,0.08 -0.87,-0.45 -1,-0.81 -2.22,-6.48 -4.37,-13 -6.58,-19.47 -1,-2.81 -2,-5.59 -3.09,-8.34 -0.24,-0.58 -1,-0.93 -1.53,-1.39 -0.37,0.59 -1,1.18 -1.05,1.78 -0.1,3.52 0,7 0,10.78 2.61,-0.15 3.25,1.68 3.81,3.69 0.77,2.75 1.73,5.45 2.46,8.21 a 12.67,12.67 0 0 1 0.27,3.59 c 0,0.36 -0.63,0.69 -1,1 -0.33,-0.36 -0.95,-0.73 -0.95,-1.09 0,-4.3 -2.1,-8 -3.09,-12.08 C 63.5,55.08 63,54.71 62.68,54.29 Z"
       id="path4" />
    <path
       d="m 61,31.26 a 15.08,15.08 0 0 1 8.76,-5.14 13.49,13.49 0 0 1 15.74,11.72 2.28,2.28 0 0 1 0,1.13 c -0.18,0.38 -0.59,0.87 -0.91,0.88 a 1.35,1.35 0 0 1 -0.95,-0.83 35.19,35.19 0 0 0 -1,-4.14 A 11.63,11.63 0 0 0 64,31.17 c -0.44,0.4 -0.84,0.86 -1.29,1.27 -1.24,1.15 -2.2,1.2 -3.44,0 A 14.2,14.2 0 0 0 52,28.15 a 11.73,11.73 0 0 0 -12.14,5.49 10.83,10.83 0 0 0 1.49,13 c 2,2.15 4,4.23 6,6.36 0.54,0.57 1.44,1.28 0.46,2 -0.33,0.24 -1.5,-0.24 -2,-0.71 -2,-1.91 -3.82,-4 -5.71,-6 a 13.09,13.09 0 0 1 0.05,-18.43 13.9,13.9 0 0 1 18.88,-0.45 z"
       id="path6" />
    <path
       d="m 45.48,77.5 -10.94,3.8 a 3.13,3.13 0 0 1 -1.08,0.36 7.33,7.33 0 0 1 -1.56,-0.41 c 0.29,-0.49 0.48,-1.26 0.9,-1.43 2.4,-0.95 4.86,-1.75 7.29,-2.6 1.56,-0.55 3.14,-1 4.65,-1.69 a 1.77,1.77 0 0 0 1,-1.34 C 45,68.39 46.8,63.11 49,57.89 49.76,56 50.4,54 51.11,52 c 0.27,-0.74 0.61,-1.64 1.57,-1.13 0.34,0.18 0.5,1.24 0.32,1.76 -1.37,4 -3,7.92 -4.24,12 a 27.26,27.26 0 0 0 -1,6.11 48.59,48.59 0 0 0 0,6.27 c 0.05,1 0.47,2 0.6,3 a 7.32,7.32 0 0 1 -0.23,1.71 c -0.54,-0.27 -1.34,-0.41 -1.55,-0.84 a 22.58,22.58 0 0 1 -1.1,-3.38 z"
       id="path8" />
    <path
       d="m 76.56,77.57 a 37.45,37.45 0 0 1 -1.31,3.59 c -0.16,0.33 -0.9,0.38 -1.38,0.56 a 3.7,3.7 0 0 1 -0.4,-1.28 c 0.2,-2 0.5,-4.08 0.74,-6.12 0.05,-0.44 -0.12,-0.95 0.05,-1.31 a 5.62,5.62 0 0 1 1,-1.2 c 0.33,0.37 1,0.81 0.92,1.11 -0.43,2.35 1.15,2.78 2.84,3.33 3.19,1 6.33,2.16 9.48,3.29 0.78,0.27 2,0.41 1.52,1.66 -0.48,1.25 -1.38,0.53 -2.11,0.28 -3.47,-1.2 -6.93,-2.42 -10.4,-3.63 -0.3,-0.12 -0.66,-0.2 -0.95,-0.28 z"
       id="path10" />
    <path
       d="m 85.11,43.51 a 36.71,36.71 0 0 1 -2.72,4.18 c -2,2.34 -4.15,4.55 -6.26,6.78 -0.55,0.58 -1.23,1.44 -2,0.53 -0.24,-0.29 0.13,-1.41 0.53,-1.87 1.57,-1.83 3.36,-3.48 4.9,-5.34 1.24,-1.51 2.21,-3.24 3.38,-4.81 a 2.2,2.2 0 0 1 1.4,-0.7 c 0.18,-0.02 0.45,0.72 0.77,1.23 z"
       id="path12" />
  </g>
</svg>
