<svg id="Layer_1" data-name="Layer 1" xmlns="http://www.w3.org/2000/svg" viewBox="0 0 120 120"><title>Artboard 20 copy 3</title><path d="M82.58,58.84A23.56,23.56,0,1,1,59.1,35.14,23.46,23.46,0,0,1,82.58,58.84ZM59.19,38.71A20.08,20.08,0,0,0,39.06,58.56c-.1,10.82,8.71,20,19.27,20.18,11.53.15,20.77-8.7,20.8-19.92A20.25,20.25,0,0,0,59.19,38.71Z"/><path d="M60.81,19.51a23.36,23.36,0,0,1-.07,4.27c-.13.74-1,1.34-1.57,2-.62-.59-1.73-1.15-1.77-1.79a75.74,75.74,0,0,1,0-9c0-.65,1.1-1.25,1.69-1.87.58.64,1.52,1.2,1.65,1.91A27.23,27.23,0,0,1,60.81,19.51Z"/><path d="M57.31,98a18.94,18.94,0,0,1,.07-4.06c.17-.81,1.07-1.46,1.64-2.18.6.7,1.66,1.36,1.71,2.1a63.58,63.58,0,0,1,0,8.62c-.05.67-1.07,1.28-1.64,1.91-.59-.61-1.58-1.15-1.71-1.85A25.42,25.42,0,0,1,57.31,98Z"/><path d="M33.88,36.32c-2.51-2.86-5.2-5.59-7.41-8.67-.58-.8,1.14-2.23,2.14-1.38a75,75,0,0,1,7.32,7.38c.27.31-.58,1.62-.9,2.46Z"/><path d="M91.82,89.8c-.21.38-.36,1.09-.74,1.24-.59.24-1.6.38-2,0-2.38-2.21-4.68-4.52-6.86-6.93-.32-.35-.06-1.6.35-2.1a1.93,1.93,0,0,1,1.88-.19c2.39,2.21,4.66,4.55,6.94,6.87C91.63,89,91.65,89.33,91.82,89.8Z"/><path d="M98.49,57.07a29.84,29.84,0,0,1,4.54.08,2.22,2.22,0,0,1,1.49,1.59,2.24,2.24,0,0,1-1.47,1.66,88.18,88.18,0,0,1-9.34,0,2.31,2.31,0,0,1-1.52-1.65c0-.54.91-1.51,1.52-1.6a33.07,33.07,0,0,1,4.78-.08Z"/><path d="M19.91,57.06a19.6,19.6,0,0,1,4.06.08c.77.17,1.38,1.09,2.07,1.68-.64.56-1.26,1.56-1.93,1.6a63.58,63.58,0,0,1-8.62,0c-.73,0-1.39-1.11-2.09-1.72.74-.54,1.41-1.41,2.21-1.56A24.63,24.63,0,0,1,19.91,57.06Z"/><path d="M83.66,35.88a1.68,1.68,0,0,1-1.26-2.81,90.51,90.51,0,0,1,6.71-6.72,2.24,2.24,0,0,1,2.09.13c.4.27.69,1.56.44,1.83-2.38,2.52-4.88,4.92-7.36,7.33C84.13,35.79,83.85,35.81,83.66,35.88Z"/><path d="M36.18,83.31c0,1.24-6.81,8.1-8.08,8.14a1.63,1.63,0,0,1-1.35-2.69,79.63,79.63,0,0,1,6.7-6.8A1.66,1.66,0,0,1,36.18,83.31Z"/></svg>