<svg id="Layer_1" data-name="Layer 1" xmlns="http://www.w3.org/2000/svg" viewBox="0 0 120 120"><title>Artboard 19 copy 2</title><path d="M79.31,43.12c-1.18,0-2.39,0-3.57,0h-11a4.32,4.32,0,0,1-.6-8.61,7.33,7.33,0,0,1,1.11-.06h2.3V31.84l-3.76,0a6.92,6.92,0,0,0-6,7.48,6.82,6.82,0,0,0,6.42,6.31c3.34.06,6.73.05,10,0H78.6A5.23,5.23,0,0,1,84,51.07v.36h2.59v-.76A7.74,7.74,0,0,0,79.31,43.12Z"/><path d="M59.82,14.31A46.1,46.1,0,0,0,26.27,92.83,45.66,45.66,0,0,0,59,106.5h.13a46.1,46.1,0,0,0,.72-92.19Zm-.46,89.59a47.43,47.43,0,0,1-7.89-.68A43.24,43.24,0,0,1,17.05,71.78c-3.8-14.21-.26-29.5,9.24-39.9l1.05-1.16L57.52,60.9H31.2V74.69h39a3,3,0,0,1,2.16.87L88.91,92.16l-1.2,1C79.17,100.3,69.65,103.9,59.36,103.9Zm13.28-32L64.8,63.64l2.93-.06H84.29v8.5H73.64A2.93,2.93,0,0,1,72.64,71.87Zm-3.77.19H49.7V63.5H60.33ZM47,63.59v8.46H33.8V63.59ZM90.75,90.1,75.35,74.71H86.9V60.92H62.58a2.73,2.73,0,0,1-2-.84Q45.72,45.22,30.85,30.37a1.09,1.09,0,0,0-.17-.13L29.05,29l1.32-1.18c15-13.49,41.35-16.4,59.59,2.07,17.85,18.08,14.86,44.75,1.84,59.1Z"/></svg>