<svg id="Layer_1" data-name="Layer 1" xmlns="http://www.w3.org/2000/svg" viewBox="0 0 120 120"><title>Artboard 17 copy 3</title><path d="M32.58,24.25h-.46A20.28,20.28,0,0,0,17.6,30.42a22.22,22.22,0,0,0-6.41,15.44c-.14,12,9,22,20.46,22.23a20.5,20.5,0,0,0,15-6.23A22.39,22.39,0,0,0,53.05,46.2C53,34.15,44,24.51,32.58,24.25ZM32.48,65h-.26A17.55,17.55,0,0,1,19.54,59.5,18.87,18.87,0,0,1,14.2,46.35c0-10.54,7.82-18.87,17.87-19a17.36,17.36,0,0,1,12.6,5.42,19.15,19.15,0,0,1,5.38,13.36C50.07,56.2,42,64.81,32.48,65Z"/><path d="M84.59,24.26l-.88,0-.63.09a33,33,0,0,0-3.42.56,19.81,19.81,0,0,0-9.33,5.23,1.62,1.62,0,0,0,0,2.36,1.56,1.56,0,0,0,2.25-.22A16.93,16.93,0,0,1,88.89,28c9.09,2.27,15,11.64,13.36,21.34a18.77,18.77,0,0,1-7.48,12.3,17.32,17.32,0,0,1-13.75,3c-8-1.63-14-9-14.35-17.49a19.88,19.88,0,0,1,2-9.69,1.62,1.62,0,0,0-.13-1.87,1.44,1.44,0,0,0-1.1-.56l-.18,0a1.61,1.61,0,0,0-1.24,1,22.5,22.5,0,0,0-2.13,13.78C65.55,59.8,73.39,67.33,83,68A19.65,19.65,0,0,0,99.66,61.3a21.71,21.71,0,0,0,5.59-18.37C103.79,32.29,94.91,24.26,84.59,24.26Z"/><path d="M58.42,63.11a20.18,20.18,0,0,0-3.61.32c-11.21,2-18.91,13.18-17.15,24.95C39.26,99.11,47.94,106.93,58.3,107l.83-.07c.64-.05,1.27-.1,1.9-.17a1.54,1.54,0,0,0,1.08-.57,1.71,1.71,0,0,0,.3-1.26,1.44,1.44,0,0,0-.52-1,1.65,1.65,0,0,0-1.24-.33,16.39,16.39,0,0,1-5.93-.24c-9.77-2.23-15.77-11.69-14-22,1.45-8.21,8.52-14.7,16.46-15.12a17.33,17.33,0,0,1,14,5.72,19.06,19.06,0,0,1-4.83,29.81,1.61,1.61,0,0,0-.86,1.3,1.56,1.56,0,0,0,.57,1.34,1.47,1.47,0,0,0,1.83.07,22.18,22.18,0,0,0,11-23.38C77,70.46,68.37,63.11,58.42,63.11Z"/><path d="M67,89.5l-8.67,0H49.66a1.55,1.55,0,0,0-1.14.48,1.58,1.58,0,0,0-.41,1.13,1.5,1.5,0,0,0,1.6,1.52H66.94a1.49,1.49,0,0,0,1.57-1.49A1.68,1.68,0,0,0,68.1,90,1.45,1.45,0,0,0,67,89.5Z"/><path d="M76.92,56.54a1.49,1.49,0,0,0,1.88-.64,7.25,7.25,0,0,1,5.86-3.27h.06a7,7,0,0,1,5.72,3.07,1.5,1.5,0,0,0,2.8-.52,1.85,1.85,0,0,0-.38-1.34,9.85,9.85,0,0,0-16.49.21,2.11,2.11,0,0,0-.31.71A1.54,1.54,0,0,0,76.92,56.54Z"/><path d="M49.57,79.46h0a1.49,1.49,0,0,0-1.44,1.59c0,.3,0,.61,0,.92v.88c0,.31,0,.61,0,.92a1.53,1.53,0,0,0,1.44,1.61,1.5,1.5,0,0,0,1.54-1.54c0-.93,0-1.9,0-2.86A1.45,1.45,0,0,0,49.57,79.46Z"/><path d="M74.38,45a1.49,1.49,0,1,0,3,.16,25.4,25.4,0,0,0,0-3.15,1.48,1.48,0,0,0-1.48-1.39h-.08a1.54,1.54,0,0,0-1.4,1.56c0,.33,0,.66,0,1V45Z"/><path d="M93.28,46.53h0A1.53,1.53,0,0,0,94.78,45V42.17a1.53,1.53,0,0,0-1.45-1.6h0a1.53,1.53,0,0,0-1.51,1.54c0,1.09,0,2,0,2.93A1.53,1.53,0,0,0,93.28,46.53Z"/><path d="M67,79.46h0A1.43,1.43,0,0,0,65.55,81v2.83A1.47,1.47,0,0,0,67,85.38,1.41,1.41,0,0,0,68.07,85a1.6,1.6,0,0,0,.44-1.1c0-1,0-1.91,0-2.86A1.45,1.45,0,0,0,67,79.46Z"/><path d="M39.74,50.63a1.46,1.46,0,0,0-1.76.63,7.27,7.27,0,0,1-5.82,3.32h-.09a7.35,7.35,0,0,1-5.85-3.19,1.9,1.9,0,0,0-.36-.38,1.47,1.47,0,0,0-.87-.29,1.45,1.45,0,0,0-1,.44,1.62,1.62,0,0,0-.16,2,9.82,9.82,0,0,0,16.58-.05,2.53,2.53,0,0,0,.36-1A1.48,1.48,0,0,0,39.74,50.63Z"/><path d="M24.87,45.2c0-.35.05-.72.06-1.11,0-.19,0-.39,0-.6s0-.33,0-.51a11.5,11.5,0,0,0-.08-1.18,1.48,1.48,0,0,0-1.45-1.23h-.1a1.48,1.48,0,0,0-1.37,1.5c0,1,0,2,0,2.92a1.47,1.47,0,0,0,2.94.21Z"/><path d="M40.83,40.57h0a1.52,1.52,0,0,0-1.47,1.58v2.79a1.54,1.54,0,0,0,1.5,1.59h0A1.54,1.54,0,0,0,42.32,45c0-1,0-2,0-2.93A1.53,1.53,0,0,0,40.83,40.57Z"/></svg>