<svg id="Layer_1" data-name="Layer 1" xmlns="http://www.w3.org/2000/svg" viewBox="0 0 120 120"><title>Artboard 17 copy 2</title><path d="M108.82,37.76a5.1,5.1,0,0,0-5.29-5.26h-61a1.22,1.22,0,0,0-1.13,1.13,1.33,1.33,0,0,0,1.51,1.65H55.49q23.88,0,47.76,0h0a2.82,2.82,0,0,1,2,.75,2.85,2.85,0,0,1,.76,2.07q0,16.65,0,33.28V81.69a2.48,2.48,0,0,1-2.79,2.82H71a1.82,1.82,0,0,0-1.57.75c-.77,1-1.57,2-2.36,3l-5.39,6.82L61,94.3l-2-2.39c-1.81-2.18-3.63-4.35-5.43-6.54a2.14,2.14,0,0,0-1.83-.87h0q-8.16,0-16.31,0H20.27A2.3,2.3,0,0,1,18,83.14a3.73,3.73,0,0,1-.25-1.49q0-18.86,0-37.7v-5.8c0-.2,0-.3,0-.39a2.4,2.4,0,0,1,2.57-2.48h6.81a1.3,1.3,0,0,0,1.48-1.37,1.43,1.43,0,0,0-.35-1,1.56,1.56,0,0,0-1.13-.38H20.14a5.11,5.11,0,0,0-5.23,5.22V82.07a5.08,5.08,0,0,0,5.19,5.2H50.67a1.61,1.61,0,0,1,1.32.63q1.42,1.73,2.87,3.44c1.8,2.16,3.66,4.38,5.45,6.6a1.79,1.79,0,0,0,1.4.75A1.72,1.72,0,0,0,63,97.91c1.62-2.12,3.31-4.25,4.94-6.3q1.47-1.85,2.92-3.71a1.54,1.54,0,0,1,1.32-.63H82.53c6.88,0,14,0,21,0h0a5.32,5.32,0,0,0,3.72-1.56A5.18,5.18,0,0,0,108.83,82q0-16,0-31.93Z"/><path d="M71.69,55.43,71,55.26c-1.43-.37-2.86-.74-4.29-1.09a1.76,1.76,0,0,1-1.12-.82c-.88-1.43-1.79-2.85-2.69-4.27a1.52,1.52,0,0,0-1.26-.76h0a1.54,1.54,0,0,0-1.27.77l-.9,1.42c-.61,1-1.22,1.94-1.85,2.89a1.82,1.82,0,0,1-1,.73c-1,.29-2.08.56-3.12.82l-1.77.46a1.55,1.55,0,0,0-1.19,1A1.62,1.62,0,0,0,51,57.88l.73.88c.84,1,1.69,2,2.52,3.07a1.58,1.58,0,0,1,.35,1c-.08,1.42-.18,2.85-.27,4.27l-.08,1.2a1.4,1.4,0,0,0,.25,1.07,1.23,1.23,0,0,0,1,.2,6.49,6.49,0,0,0,1.77-.45c.88-.33,1.74-.71,2.61-1.09l.89-.39a2.32,2.32,0,0,1,.91-.19,2.27,2.27,0,0,1,.88.18l.74.33c.56.25,1.14.52,1.72.72l.27.1a15.8,15.8,0,0,0,2.63.78,1.27,1.27,0,0,0,.93-.13,1.36,1.36,0,0,0,.25-1c-.06-1.71-.18-3.45-.3-5.14V63a1.78,1.78,0,0,1,.45-1.37c1.1-1.29,2.18-2.59,3.25-3.92a1.44,1.44,0,0,0,.31-1.38A1.48,1.48,0,0,0,71.69,55.43Zm-3.25,2.79-.59.73c-.44.55-.86,1.08-1.33,1.58a2.21,2.21,0,0,0-.6,1.85c.08.68.12,1.36.16,2.07l.1,1.67-.72-.26c-.46-.17-.9-.38-1.32-.58a5.7,5.7,0,0,0-2.46-.77h0a5.84,5.84,0,0,0-2.49.78c-.42.2-.84.41-1.28.57l-.73.27.11-1.71c0-.71.07-1.41.14-2.09a2,2,0,0,0-.53-1.72c-.42-.47-.82-1-1.22-1.45l-.46-.56-.2-.28-.5-.74.69-.17.88-.24c.65-.18,1.27-.34,1.92-.47a2.7,2.7,0,0,0,1.88-1.36c.31-.5.6-1,.91-1.54l.9-1.54.64,1.14q.21.41.42.75l.17.3c.23.38.45.76.7,1.12a2.47,2.47,0,0,0,1.56,1.09c.68.14,1.35.32,2,.51l.94.25.76.19Z"/><path d="M25.29,56.36a1.67,1.67,0,0,0,.46,1.57l1.14,1.38c.67.81,1.35,1.63,2,2.45a1.8,1.8,0,0,1,.38,1.14c-.06,1.32-.14,2.65-.23,4L29,68.28v.26a1.18,1.18,0,0,0,.27.85,1.07,1.07,0,0,0,.8.19,4.26,4.26,0,0,0,1.35-.26c1.39-.52,2.51-1,3.54-1.47a3.2,3.2,0,0,1,2.92,0,34.32,34.32,0,0,0,3.23,1.36,7,7,0,0,0,1.93.36c.33,0,.68,0,.79-.71a5.32,5.32,0,0,0,0-1.06L43.69,66c-.06-1-.13-2-.18-3a1.78,1.78,0,0,1,.37-1.13c.6-.75,1.22-1.49,1.83-2.23l1.45-1.76a1.41,1.41,0,0,0-.78-2.37q-2.46-.64-4.93-1.26a1.64,1.64,0,0,1-1.08-.79c-.66-1.07-1.34-2.13-2-3.2l-.65-1a1.59,1.59,0,0,0-1.3-.84h0a1.62,1.62,0,0,0-1.31.84l-.31.49c-.78,1.21-1.55,2.42-2.29,3.64a1.91,1.91,0,0,1-1.25.91c-1.29.31-2.57.64-3.86,1l-.82.22A1.65,1.65,0,0,0,25.29,56.36Zm5.57.8c.73-.19,1.44-.38,2.15-.54a2,2,0,0,0,1.23-.79c.34-.5.65-1,1-1.53l.28-.47c.1-.16.19-.32.29-.5l.59-1.06,1.23,2c.32.52.63,1,1,1.55a1.9,1.9,0,0,0,1.22.77c.7.16,1.4.34,2.12.54l1.71.45-.67.84c-.13.17-.25.33-.38.48l-.33.4c-.4.48-.8,1-1.21,1.45a1.68,1.68,0,0,0-.4,1.31c.06.73.1,1.47.14,2.24l.1,1.82-3.11-1.22c-1.37-.56-1.37-.56-2.69,0l-3.16,1.26L32,64.38c0-.79.08-1.55.14-2.32a1.66,1.66,0,0,0-.38-1.26c-.48-.56-.95-1.13-1.44-1.73l-1.2-1.45Z"/><path d="M97.69,57.83a1.4,1.4,0,0,0-.77-2.42c-1.63-.42-3.25-.84-4.88-1.24a1.68,1.68,0,0,1-1.12-.82c-.88-1.42-1.77-2.82-2.67-4.22A1.58,1.58,0,0,0,87,48.31h0a1.6,1.6,0,0,0-1.29.82c-.33.51-.65,1-1,1.52-.58.92-1.17,1.84-1.76,2.75a1.85,1.85,0,0,1-1,.73c-1,.28-2,.54-3.07.8l-1.82.47a1.6,1.6,0,0,0-1.18,1,1.58,1.58,0,0,0,.37,1.47l1.07,1.29c.72.87,1.44,1.74,2.15,2.62A1.85,1.85,0,0,1,79.85,63c0,1.23-.14,2.46-.22,3.69l-.09,1.56a1.54,1.54,0,0,0,.32,1.23,1.57,1.57,0,0,0,1.3.11l1.1-.39c.76-.28,1.53-.56,2.28-.88l.61-.26a4.81,4.81,0,0,1,1.79-.55,4.75,4.75,0,0,1,1.79.55l.62.27a25.94,25.94,0,0,0,3.47,1.25,1.48,1.48,0,0,0,1.24-.09,1.61,1.61,0,0,0,.34-1.31c-.13-1.78-.24-3.55-.34-5.32a1.5,1.5,0,0,1,.31-1c.73-.9,1.46-1.78,2.2-2.67ZM93.07,59c-.49.6-1,1.17-1.44,1.73a1.76,1.76,0,0,0-.43,1.4c.07.73.11,1.46.15,2.23l.1,1.78-1.63-.64c-.68-.26-1.33-.52-2-.8a2.06,2.06,0,0,0-1.75,0c-.65.28-1.31.54-2,.81l-1.63.63.05-.78c0-.27,0-.53,0-.79,0-.58,0-1.13.13-1.68a2.84,2.84,0,0,0-.8-2.68,12.85,12.85,0,0,1-1.17-1.36c-.16-.21-.33-.43-.52-.65l-.5-.61.77-.19.9-.24c.66-.18,1.28-.35,1.92-.48a2.6,2.6,0,0,0,1.83-1.27c.25-.4.49-.81.72-1.22l1.13-2L88.51,55a3.16,3.16,0,0,0,2.34,1.78,12.79,12.79,0,0,1,1.78.43l.84.23.76.2Z"/><path d="M35,35.28a1.43,1.43,0,0,0,1.4-1.4,1.31,1.31,0,0,0-.39-1,1.35,1.35,0,0,0-1-.4,1.4,1.4,0,0,0-1,.39,1.45,1.45,0,0,0,0,2A1.19,1.19,0,0,0,35,35.28Z"/></svg>