<?xml version="1.0" encoding="UTF-8" standalone="no"?>
<svg
   xmlns:dc="http://purl.org/dc/elements/1.1/"
   xmlns:cc="http://creativecommons.org/ns#"
   xmlns:rdf="http://www.w3.org/1999/02/22-rdf-syntax-ns#"
   xmlns:svg="http://www.w3.org/2000/svg"
   xmlns="http://www.w3.org/2000/svg"
   xmlns:sodipodi="http://sodipodi.sourceforge.net/DTD/sodipodi-0.dtd"
   xmlns:inkscape="http://www.inkscape.org/namespaces/inkscape"
   id="Layer_1"
   data-name="Layer 1"
   viewBox="0 0 120 120"
   version="1.1"
   sodipodi:docname="icon-4-meditaciones.svg"
   inkscape:version="1.0.2-2 (e86c870879, 2021-01-15)">
  <metadata
     id="metadata11">
    <rdf:RDF>
      <cc:Work
         rdf:about="">
        <dc:format>image/svg+xml</dc:format>
        <dc:type
           rdf:resource="http://purl.org/dc/dcmitype/StillImage" />
      </cc:Work>
    </rdf:RDF>
  </metadata>
  <defs
     id="defs9" />
  <sodipodi:namedview
     pagecolor="#ffffff"
     bordercolor="#666666"
     borderopacity="1"
     objecttolerance="10"
     gridtolerance="10"
     guidetolerance="10"
     inkscape:pageopacity="0"
     inkscape:pageshadow="2"
     inkscape:window-width="1366"
     inkscape:window-height="705"
     id="namedview7"
     showgrid="false"
     inkscape:zoom="3.6388287"
     inkscape:cx="64.946647"
     inkscape:cy="60"
     inkscape:window-x="-8"
     inkscape:window-y="-8"
     inkscape:window-maximized="1"
     inkscape:current-layer="Layer_1" />
  <title
     id="title2">Artboard 17 copy</title>
  <path
     d="m 10.972009,67.705028 c 0.451999,-2.65882 0.74447,-4.932111 1.249645,-7.205402 a 35.083132,35.083132 0 0 1 9.75787,-17.401978 Q 32.441981,32.56872 43.077262,22.053086 c 2.273291,-2.259997 2.991172,-2.20682 4.918817,0.412117 0.81094,1.090117 1.528821,2.259998 2.472703,3.669172 0.717881,-0.877411 1.32941,-1.608585 1.91435,-2.326467 1.688351,-2.020704 2.446114,-2.073879 4.307289,-0.226 q 8.813988,8.787401 17.588095,17.60139 a 17.707742,17.707742 0 0 1 1.449056,1.954232 l 0.74447,-0.252587 c 0.279177,-1.103411 0.545058,-2.220115 0.837529,-3.336819 A 15.873156,15.873156 0 0 1 91.374732,27.636608 c 2.140343,-0.146234 2.91141,0.505177 2.871523,2.658822 -0.09306,6.833167 0,13.65304 0,20.486208 v 3.057644 c 2.020701,-0.983764 3.722341,-1.861175 5.463881,-2.65882 a 11.53928,11.53928 0 0 1 16.165624,8.641165 3.2304665,3.2304665 0 0 1 -2.10047,3.98823 Q 80.540037,80.32113 47.371257,97.04511 a 21.975148,21.975148 0 0 1 -10.635282,2.52588 c -9.997163,-0.18612 -19.94115,-0.11965 -29.9914911,0 -2.180232,0 -2.7784656,-0.71788 -2.7518779,-2.81836 q 0.146235,-13.161152 0,-26.335606 c 0,-2.113762 0.5982348,-3.004466 2.7651729,-2.778467 1.289528,0.172824 2.685408,0.06648 4.2142301,0.06648 z M 6.8375439,96.632994 a 14.025276,14.025276 0 0 0 1.46235,0.159526 c 10.6352811,0 21.1376211,0 31.7064301,0 a 7.1256379,7.1256379 0 0 0 2.991173,-0.837531 C 53.632778,90.637352 64.175,85.319711 74.81028,80.09513 a 2.9512904,2.9512904 0 0 0 1.967527,-3.124113 c -0.09306,-9.026695 0,-18.05339 -0.106351,-27.080083 A 5.3176403,5.3176403 0 0 0 75.342044,46.554115 C 69.160287,40.199534 62.845589,33.991189 56.610656,27.676491 a 13.493512,13.493512 0 0 1 -1.568704,-2.698703 c -4.971994,7.112345 -4.599758,13.879041 0.505176,19.342918 2.65882,2.778467 5.450581,5.31764 7.97646,8.175871 a 5.809522,5.809522 0 0 1 1.435763,3.363407 c 0.172824,3.988231 0,7.976461 0.09306,11.964691 a 2.7518789,2.7518789 0 0 1 -2.033998,3.070937 q -7.976461,3.031055 -15.81998,6.327992 c -1.794703,0.74447 -2.791761,0.491882 -3.655878,-1.32941 C 41.056562,70.6962 38.384448,65.591266 35.845274,60.419861 a 8.8937533,8.8937533 0 0 1 1.794704,-11.140456 c 2.326468,-2.379644 4.759288,-4.679523 7.059167,-7.085756 A 13.613159,13.613159 0 0 0 45.297376,23.927555 C 38.969385,30.255547 32.800922,36.71648 26.313401,42.84506 18.881999,49.877639 14.34871,58.133276 14.096123,68.48938 c 0,1.48894 -0.717882,2.020704 -2.113763,1.980821 -1.661762,0 -3.3368191,0 -5.1049351,0 z M 46.05514,74.524902 c 5.091641,-2.033997 9.997164,-3.98823 14.836216,-5.969051 a 2.6588201,2.6588201 0 0 0 1.223057,-1.954233 c 0.132942,-3.40329 0.09306,-6.819874 0,-10.223163 A 3.1507018,3.1507018 0 0 0 61.42312,54.424221 c -4.067995,-4.320582 -8.215754,-8.574694 -11.432926,-11.96469 -3.363407,2.898114 -7.032579,5.982345 -10.63528,9.159635 a 5.158111,5.158111 0 0 0 -1.528822,6.208345 c 2.592349,5.623405 5.450581,11.08728 8.229048,16.697391 z M 91.002492,30.65437 A 12.749042,12.749042 0 0 0 79.636039,43.430001 c -0.132942,11.060691 0,22.108089 0,33.235251 a 4.2674063,4.2674063 0 0 0 0.265882,0.957175 c 6.088697,-4.519994 10.63528,-10.063634 11.00752,-17.534919 0.491879,-9.771163 0.09306,-19.529034 0.09306,-29.419844 z m 22.134678,30.217491 c -1.32941,-5.131523 -4.67952,-8.335402 -9.09316,-7.577637 a 29.765492,29.765492 0 0 0 -9.305875,3.881877 c -0.824232,0.465292 -0.624818,2.65882 -1.010347,3.988229 q -0.997058,3.49635 -2.166942,6.926227 c -0.465291,1.329411 -1.09012,2.579056 -1.901053,4.480112 z"
     id="path4"
     style="stroke-width:1.32941" />
</svg>
