<svg id="Layer_1" data-name="Layer 1" xmlns="http://www.w3.org/2000/svg" viewBox="0 0 120 120"><defs><style>.cls-1{fill:none;}</style></defs><title>Artboard 18 copy 2</title><path d="M65.89,39.27a20,20,0,0,0,1.88,2.2,19.56,19.56,0,0,0,19,5.16A19.33,19.33,0,0,0,98,39a1.58,1.58,0,0,0,.17-1.81,6.63,6.63,0,0,0-1-1.51,21.17,21.17,0,0,0-9-6l-.32-.11,0-.33.5,0h-.5l0-.14.18-.43.18-.38a8.26,8.26,0,0,0,.77-5.13A6.79,6.79,0,0,0,84,17.38a8,8,0,0,0-2.4-.4,6.72,6.72,0,0,0-4.91,2.23,6.83,6.83,0,0,0-1.62,7.32,9.84,9.84,0,0,0,.71,1.52c.13.25.27.5.39.75l.25.51-.94.33a20,20,0,0,0-9.79,7.21,1.5,1.5,0,0,0,0,2.12ZM78.75,21.2a4.27,4.27,0,0,1,3-1.28h0a4.32,4.32,0,0,1,.05,8.63h-.05a4.32,4.32,0,0,1-3.07-7.35Zm-10,16.43a16.38,16.38,0,0,1,12.95-6.2h.13a16.59,16.59,0,0,1,13,6.18l.25.31-.25.32a16.7,16.7,0,0,1-13,6.17h0a16.69,16.69,0,0,1-13-6.16l-.25-.3Z"/><path d="M31.91,77.38h-.07a1.78,1.78,0,0,0-1.23.68C29,79.6,27.4,81.13,25.8,82.65L10.66,97.07a1.43,1.43,0,0,0-.09,2.06,1.4,1.4,0,0,0,2.06,0l2.12-2L27.81,84.71c1.7-1.63,3.41-3.25,5.1-4.89a1.42,1.42,0,0,0-1-2.44Z"/><path class="cls-1" d="M41.18,68.38a2.31,2.31,0,0,0-1.7-.83h0a3,3,0,0,0-2.6,2.58,2.47,2.47,0,0,0,.88,1.76Q44,78.43,50.17,85l2.45,2.58L57,92.16a2.14,2.14,0,0,0,1.55.72A2.24,2.24,0,0,0,60,92.29c.17-.15.34-.3.5-.47a2.05,2.05,0,0,0,0-3l-2.31-2.44L45,72.45C43.75,71.09,42.46,69.74,41.18,68.38Z"/><path class="cls-1" d="M79.66,65.9a3.39,3.39,0,0,0,.45,0h-.45Z"/><path d="M104,55.76a5.33,5.33,0,0,0-3.62-3.94A5.48,5.48,0,0,0,95,53c-.82.75-1.63,1.52-2.43,2.29l-10,9.45a4,4,0,0,1-2.41,1.13h-.09a3.39,3.39,0,0,1-.45,0H78.59L68,66a1,1,0,0,1-1-1,1,1,0,0,1,1-1h5c5,0,5.33-.67,5.33-.67l0,0a6.39,6.39,0,0,0,2.5-4.46,4.31,4.31,0,0,0-.93-3.65,4,4,0,0,0-3.13-1.33l-4.74,0c-2.52,0-5,0-7.55,0a29,29,0,0,0-4.43.27,17.36,17.36,0,0,0-9.63,5.08c-1.59,1.56-3.25,3.13-4.86,4.64l-2.17,2-.31.31-.34-.28A5.12,5.12,0,0,0,40,64.71l-.48,0a5.36,5.36,0,0,0-3.82,1.72,5,5,0,0,0-.27,7.16Q40.49,79,45.59,84.33L53,92.11l-.64.52a3.58,3.58,0,0,0-.36.3c-1.4,1.33-2.79,2.67-4.19,4a1.45,1.45,0,0,0-.15,2.13,1.35,1.35,0,0,0,1,.45h0a1.71,1.71,0,0,0,1.12-.5l1-.94,4.07-3.92.45.32.2.14a4.88,4.88,0,0,0,3.86,1.05,5.54,5.54,0,0,0,3.21-1.82,4.91,4.91,0,0,0,.17-6.93q-5.09-5.4-10.19-10.78l-7.39-7.79L45.4,68a2.64,2.64,0,0,1,.2-.24l2.26-2.13c1.63-1.54,3.26-3.08,4.88-4.64a14.73,14.73,0,0,1,6.85-3.89,20.53,20.53,0,0,1,5.2-.4c2.69,0,5.37.05,8.06.06h3.59a5.63,5.63,0,0,1,.58,0,1.05,1.05,0,0,1,1,1,3.91,3.91,0,0,1-1.08,2.94,3.45,3.45,0,0,1-2.6,1.15c-1.88-.06-3.79-.06-5.64,0H67.17a3.35,3.35,0,0,0-.06,6.7l3.39,0,3.81,0c1.66,0,3.32,0,5,.09a7.09,7.09,0,0,0,5.28-1.93c.48-.45,1-.9,1.43-1.36l3.12-3,7.73-7.31a2.62,2.62,0,0,1,1.9-.75A2.52,2.52,0,0,1,100.34,59l-3.23,3c-3,2.87-6.07,5.74-9.09,8.63a18.23,18.23,0,0,1-5.86,4.12c-1.44.57-2.93,1-4.38,1.53l-1,.33c-2,.67-4,1.32-6,2l-5,1.64a1.5,1.5,0,0,0-.93.82,1.42,1.42,0,0,0,0,1.19,1.45,1.45,0,0,0,1.93.66l4.44-1.45c3.21-1,6.43-2.11,9.65-3.13a21,21,0,0,0,8.34-4.83l4.28-4.06c3-2.85,6-5.7,9-8.58A5.1,5.1,0,0,0,104,55.76ZM58.23,86.37l2.31,2.44a2.05,2.05,0,0,1,0,3c-.16.17-.33.32-.5.47a2.24,2.24,0,0,1-1.46.59A2.14,2.14,0,0,1,57,92.16l-4.36-4.6L50.17,85Q44,78.43,37.76,71.89a2.47,2.47,0,0,1-.88-1.76,3,3,0,0,1,2.6-2.58h0a2.31,2.31,0,0,1,1.7.83c1.28,1.36,2.57,2.71,3.86,4.07Z"/><path d="M80.21,65.88h0Z"/></svg>