<?xml version="1.0" encoding="UTF-8" standalone="no"?>
<svg
   xmlns:dc="http://purl.org/dc/elements/1.1/"
   xmlns:cc="http://creativecommons.org/ns#"
   xmlns:rdf="http://www.w3.org/1999/02/22-rdf-syntax-ns#"
   xmlns:svg="http://www.w3.org/2000/svg"
   xmlns="http://www.w3.org/2000/svg"
   xmlns:sodipodi="http://sodipodi.sourceforge.net/DTD/sodipodi-0.dtd"
   xmlns:inkscape="http://www.inkscape.org/namespaces/inkscape"
   id="Layer_1"
   data-name="Layer 1"
   viewBox="0 0 120 120"
   version="1.1"
   sodipodi:docname="icon-triangulo-exito.svg"
   inkscape:version="1.0.2-2 (e86c870879, 2021-01-15)">
  <metadata
     id="metadata21">
    <rdf:RDF>
      <cc:Work
         rdf:about="">
        <dc:format>image/svg+xml</dc:format>
        <dc:type
           rdf:resource="http://purl.org/dc/dcmitype/StillImage" />
      </cc:Work>
    </rdf:RDF>
  </metadata>
  <defs
     id="defs19" />
  <sodipodi:namedview
     pagecolor="#ffffff"
     bordercolor="#666666"
     borderopacity="1"
     objecttolerance="10"
     gridtolerance="10"
     guidetolerance="10"
     inkscape:pageopacity="0"
     inkscape:pageshadow="2"
     inkscape:window-width="1366"
     inkscape:window-height="705"
     id="namedview17"
     showgrid="false"
     inkscape:zoom="2.9577146"
     inkscape:cx="60"
     inkscape:cy="60"
     inkscape:window-x="-8"
     inkscape:window-y="-8"
     inkscape:window-maximized="1"
     inkscape:current-layer="Layer_1" />
  <title
     id="title2">Artboard 20</title>
  <g
     id="g852"
     transform="matrix(1.763797,0,0,1.763797,-54.167188,-43.992277)">
    <path
       d="m 64.59,81.15 c -4.42,0 -8.84,0 -13.26,0 -0.49,0 -1.32,-0.41 -1.38,-0.74 -0.16,-0.94 0.68,-0.95 1.35,-0.95 9,0 18,0 26.92,0 0.46,0 1.25,0.49 1.31,0.85 0.14,0.86 -0.64,0.84 -1.28,0.84 z"
       id="path4" />
    <path
       d="m 72.63,46.37 c 0.21,0.39 0.4,0.78 0.62,1.16 4.38,7.47 8.75,15.01 13.11,22.55 0.2,0.34 -0.1,1 -0.16,1.46 -0.48,-0.27 -1.16,-0.42 -1.4,-0.83 -3.73,-6.3 -7.41,-12.64 -11.1,-19 -0.69,-1.18 -1.41,-2.35 -2.06,-3.55 -0.42,-0.78 -0.09,-1.47 0.62,-1.46 z"
       id="path6" />
    <path
       d="m 59.9,47.57 c -0.22,0.47 -0.36,0.84 -0.56,1.18 Q 53,59.67 46.61,70.58 c -0.07,0.12 -0.11,0.28 -0.21,0.33 -0.41,0.23 -0.85,0.42 -1.28,0.63 C 45.05,71.03 44.74,70.4 44.93,70.04 46,68 47.26,66 48.44,64 q 4.66,-8 9.34,-16 a 3.29,3.29 0 0 1 0.68,-0.95 1,1 0 0 1 0.82,-0.19 c 0.26,0.14 0.42,0.45 0.62,0.71 z"
       id="path8" />
    <path
       d="m 64.72,42.7 a 5.22,5.22 0 0 1 -5.17,-5.13 5.17,5.17 0 0 1 10.34,0 5.21,5.21 0 0 1 -5.17,5.13 z M 68,37.56 a 3.45,3.45 0 0 0 -3.39,-3.35 3.4,3.4 0 0 0 -3.23,3.36 3.33,3.33 0 0 0 3.39,3.31 3.29,3.29 0 0 0 3.23,-3.32 z"
       id="path10" />
    <path
       d="m 89.28,75.28 a 5.15,5.15 0 0 1 5,5.27 5.12,5.12 0 1 1 -5,-5.27 z m -0.2,1.84 a 3.3,3.3 0 0 0 -3.26,3.3 3.46,3.46 0 0 0 3.38,3.37 3.55,3.55 0 0 0 3.28,-3.5 3.4,3.4 0 0 0 -3.4,-3.17 z"
       id="path12" />
    <path
       d="M 45.4,79.92 A 5.09,5.09 0 0 1 40.25,85 5.1302948,5.1302948 0 1 1 40.36,74.74 5,5 0 0 1 45.4,79.92 Z m -1.77,0 a 3.38,3.38 0 0 0 -3.37,-3.36 3.43,3.43 0 0 0 -3.26,3.28 3.34,3.34 0 1 0 6.67,0 z"
       id="path14" />
  </g>
</svg>
