<?xml version="1.0" encoding="UTF-8" standalone="no"?>
<svg
   xmlns:dc="http://purl.org/dc/elements/1.1/"
   xmlns:cc="http://creativecommons.org/ns#"
   xmlns:rdf="http://www.w3.org/1999/02/22-rdf-syntax-ns#"
   xmlns:svg="http://www.w3.org/2000/svg"
   xmlns="http://www.w3.org/2000/svg"
   xmlns:sodipodi="http://sodipodi.sourceforge.net/DTD/sodipodi-0.dtd"
   xmlns:inkscape="http://www.inkscape.org/namespaces/inkscape"
   id="Layer_1"
   data-name="Layer 1"
   viewBox="0 0 120 120"
   version="1.1"
   sodipodi:docname="icon-reto-7dias.svg"
   inkscape:version="1.0.2-2 (e86c870879, 2021-01-15)">
  <metadata
     id="metadata15">
    <rdf:RDF>
      <cc:Work
         rdf:about="">
        <dc:format>image/svg+xml</dc:format>
        <dc:type
           rdf:resource="http://purl.org/dc/dcmitype/StillImage" />
      </cc:Work>
    </rdf:RDF>
  </metadata>
  <defs
     id="defs13" />
  <sodipodi:namedview
     pagecolor="#ffffff"
     bordercolor="#666666"
     borderopacity="1"
     objecttolerance="10"
     gridtolerance="10"
     guidetolerance="10"
     inkscape:pageopacity="0"
     inkscape:pageshadow="2"
     inkscape:window-width="1366"
     inkscape:window-height="705"
     id="namedview11"
     showgrid="false"
     inkscape:zoom="3.6388287"
     inkscape:cx="60"
     inkscape:cy="60"
     inkscape:window-x="-8"
     inkscape:window-y="-8"
     inkscape:window-maximized="1"
     inkscape:current-layer="Layer_1" />
  <title
     id="title2">Artboard 19</title>
  <path
     d="M 20.861039,71.619015 A 154.18873,154.18873 0 0 1 18.137536,55.337206 c -0.340437,-5.180576 0.429247,-10.361151 0.680876,-15.630537 0.118413,-2.294254 1.228536,-2.442271 3.15275,-1.820602 a 75.044338,75.044338 0 0 1 19.582576,9.635871 C 41.93858,46.382211 42.234614,45.420104 42.575051,44.4876 A 71.284721,71.284721 0 0 1 58.605232,19.946474 c 1.391354,-1.480165 2.51628,-0.666074 3.670808,0.355239 a 61.678453,61.678453 0 0 1 16.785065,23.889854 l 0.828892,2.116636 a 69.56773,69.56773 0 0 1 6.068674,-3.404379 c 4.114863,-1.820601 8.31853,-3.433981 12.492588,-5.150972 1.657781,-0.680876 2.397861,-0.251628 2.664301,1.628181 1.48016,10.479565 1.61337,20.840716 -2.249856,30.935437 a 4.4404934,4.4404934 0 0 0 -0.177619,0.873297 c 5.920665,0.606867 11.841315,1.154528 17.761975,1.850205 2.56068,0.296034 2.75311,0.828892 1.74659,3.271164 -6.43871,15.452912 -19.878603,24.378304 -36.545257,24.467124 a 67.347483,67.347483 0 0 1 -20.15984,-2.856723 5.9206578,5.9206578 0 0 0 -3.182354,0.103582 58.629314,58.629314 0 0 1 -28.729992,1.850198 C 15.843281,96.915028 7.0066995,88.344873 1.5596939,75.778277 0.81961149,74.061286 1.3524714,73.217593 3.1582716,73.054774 8.4276568,72.581122 13.711844,72.092667 18.996031,71.57461 a 15.92657,15.92657 0 0 1 1.865008,0.04441 z M 62.63128,88.300468 c -0.07401,0 0.162818,0 0.281231,-0.162818 7.667252,-10.701588 18.738882,-14.905256 31.261076,-16.074586 1.598573,-0.162818 2.101833,-1.021313 2.590283,-2.279453 3.74481,-9.680275 3.87804,-19.612179 2.264654,-29.79571 a 10.997621,10.997621 0 0 0 -1.48016,0.266428 67.31788,67.31788 0 0 0 -19.671391,10.361152 C 65.562005,60.251352 58.383208,72.048262 62.63128,88.300468 Z m -5.002956,0.606867 a 68.635226,68.635226 0 0 1 0.680875,-9.754283 14.476008,14.476008 0 0 0 -1.480164,-9.857895 58.22967,58.22967 0 0 0 -5.239782,-9.280632 C 44.010811,49.830993 33.427635,43.969543 21.615923,40.017504 c -0.177621,0 -0.414446,0 -0.725281,0.103614 -0.207223,1.761394 -0.444049,3.493187 -0.592066,5.22498 a 53.167507,53.167507 0 0 0 2.960329,24.555929 2.871519,2.871519 0 0 0 2.708702,2.131436 c 12.759017,1.198933 23.741837,5.535815 31.660717,16.873875 z M 3.617123,75.052996 c 3.7892204,8.555351 8.880987,15.260496 16.977486,19.434558 8.880987,4.632922 18.35404,5.062165 28.019513,3.537597 3.300767,-0.518059 6.527526,-1.480171 10.005912,-2.205447 A 31.083453,31.083453 0 0 0 43.670373,79.153052 C 30.985363,72.669932 17.589875,73.039972 3.617123,75.052996 Z M 116.28725,75.15661 A 75.029536,75.029536 0 0 0 94.084772,74.105693 C 84.685728,75.0678 75.923157,77.761699 68.921979,84.466844 a 29.100033,29.100033 0 0 0 -7.400822,11.204839 c 10.464762,3.226766 20.811112,4.440507 31.290671,1.480171 C 104.2535,93.865881 111.60993,86.065422 116.28725,75.15661 Z M 59.878174,70.864131 a 10.790399,10.790399 0 0 0 0.63647,-0.976909 48.534593,48.534593 0 0 1 16.281809,-21.269962 2.871519,2.871519 0 0 0 0.606868,-2.545884 52.871475,52.871475 0 0 0 -12.033737,-19.71579 c -1.583776,-1.716991 -3.300766,-3.300767 -5.032559,-5.017758 -6.808757,7.060385 -12.240961,14.461207 -15.526926,23.312591 -1.480163,3.952039 -1.480163,3.966841 1.776198,6.764351 0.651272,0.562462 1.272942,1.16933 1.909412,1.776197 a 48.23856,48.23856 0 0 1 11.382465,17.673164 z"
     id="path4"
     style="stroke-width:1.48016" />
  <path
     d="M83.5,61.51l-.89-.63c.64-2.44,1.19-4.71,1.84-7a2.08,2.08,0,0,1,1.17-1.1A15.52,15.52,0,0,1,83.5,61.51Z"
     id="path6" />
  <path
     d="M42.18,60.87l-.93.63a17.42,17.42,0,0,1-2.34-7.77c0-.34.53-.7.9-1.15Z"
     id="path8" />
</svg>
