<?xml version="1.0" encoding="UTF-8" standalone="no"?>
<svg
   xmlns:dc="http://purl.org/dc/elements/1.1/"
   xmlns:cc="http://creativecommons.org/ns#"
   xmlns:rdf="http://www.w3.org/1999/02/22-rdf-syntax-ns#"
   xmlns:svg="http://www.w3.org/2000/svg"
   xmlns="http://www.w3.org/2000/svg"
   xmlns:sodipodi="http://sodipodi.sourceforge.net/DTD/sodipodi-0.dtd"
   xmlns:inkscape="http://www.inkscape.org/namespaces/inkscape"
   id="Layer_1"
   data-name="Layer 1"
   viewBox="0 0 120 120"
   version="1.1"
   sodipodi:docname="icon-audifonos.svg"
   inkscape:version="1.0.2-2 (e86c870879, 2021-01-15)">
  <metadata
     id="metadata15">
    <rdf:RDF>
      <cc:Work
         rdf:about="">
        <dc:format>image/svg+xml</dc:format>
        <dc:type
           rdf:resource="http://purl.org/dc/dcmitype/StillImage" />
      </cc:Work>
    </rdf:RDF>
  </metadata>
  <defs
     id="defs13" />
  <sodipodi:namedview
     pagecolor="#ffffff"
     bordercolor="#666666"
     borderopacity="1"
     objecttolerance="10"
     gridtolerance="10"
     guidetolerance="10"
     inkscape:pageopacity="0"
     inkscape:pageshadow="2"
     inkscape:window-width="1366"
     inkscape:window-height="705"
     id="namedview11"
     showgrid="false"
     inkscape:zoom="2.5751711"
     inkscape:cx="60"
     inkscape:cy="60"
     inkscape:window-x="-8"
     inkscape:window-y="-8"
     inkscape:window-maximized="1"
     inkscape:current-layer="Layer_1" />
  <title
     id="title2">Artboard 17</title>
  <g
     id="g20"
     transform="matrix(1.0415345,0,0,1.0415345,0.89557925,1.4451002)">
    <path
       d="m 108.07462,65.020604 a 9.1962122,9.1962122 0 0 0 -4.10265,-7.770712 8.1879319,8.1879319 0 0 1 -3.6333,-6.62336 43.9645,43.9645 0 0 0 -87.35532,2.538085 3.2160667,3.2160667 0 0 1 -1.738415,2.816232 11.473535,11.473535 0 0 0 -5.8410724,10.15234 c -0.1043027,7.666408 -0.1043027,14.776523 0,21.7128 a 11.682145,11.682145 0 0 0 12.1689024,11.80383 h 6.745047 c 2.416397,0 2.55547,-0.156454 2.55547,-2.555472 v -8.692073 q 0,-14.585293 0,-29.17059 a 33.447093,33.447093 0 0 1 4.328652,-17.540602 29.74427,29.74427 0 0 1 55.351114,13.403175 c 0.208605,4.815408 0.156453,9.700353 0.104302,14.42884 v 5.632463 h 0.225997 v 22.373389 c 0,1.738419 0.295528,2.10349 2.173021,2.12087 h 7.405647 A 11.386615,11.386615 0 0 0 107.97032,89.132415 c 0.3303,-7.718563 0.19122,-15.645733 0,-23.207836 z m -3.00745,22.599389 a 8.8485294,8.8485294 0 0 1 -8.987605,8.95283 H 89.908192 V 82.178754 c 0,-8.43131 0,-17.15815 0,-25.711149 A 33.029874,33.029874 0 0 0 54.583607,23.837567 33.134179,33.134179 0 0 0 23.84844,56.102538 c 0,8.692072 0,17.384144 0,25.937143 v 14.533142 h -0.869207 -2.120866 -1.912255 c -0.79967,0 -1.581957,0 -2.381628,-0.0869 A 8.6920721,8.6920721 0 0 1 8.7242345,88.054617 c 0,-6.519053 -0.1390728,-14.237613 0,-22.11263 a 8.2053161,8.2053161 0 0 1 5.6324635,-7.875018 2.416396,2.416396 0 0 0 1.738414,-2.520701 40.887507,40.887507 0 0 1 34.055538,-39.114325 40.139989,40.139989 0 0 1 30.005034,6.849353 40.60936,40.60936 0 0 1 16.897387,26.076217 51.630908,51.630908 0 0 1 0.660599,6.275676 2.294707,2.294707 0 0 0 1.738408,2.416396 8.6920721,8.6920721 0 0 1 5.615092,8.483462 c 0.0695,7.71856 0.0348,15.315431 0,21.069588 z"
       id="path4"
       style="stroke-width:1.73842" />
    <path
       d="m 77.913129,66.272262 v 0 c -1.616725,0 -1.964408,1.408115 -1.964408,2.572853 V 94.34765 c 0,1.164743 0.347683,2.572863 1.964408,2.590243 a 1.8253352,1.8253352 0 0 0 1.355963,-0.486753 2.8162314,2.8162314 0 0 0 0.643214,-2.10349 V 68.775579 a 2.8857679,2.8857679 0 0 0 -0.660598,-2.016561 1.7384144,1.7384144 0 0 0 -1.338579,-0.486756 z"
       id="path6"
       style="stroke-width:1.73842" />
    <path
       d="m 37.390689,66.272262 c -1.269042,0 -2.033945,1.00828 -2.051329,2.694543 v 25.224391 c 0,1.738419 0.782287,2.694546 2.068713,2.694546 v 0 c 1.738414,0 2.033944,-1.738419 2.033944,-2.711926 q 0,-12.603507 0,-25.224396 c 0,-1.00828 -0.260762,-2.677158 -2.051328,-2.677158 z"
       id="path8"
       style="stroke-width:1.73842" />
  </g>
</svg>
