<svg id="Layer_1" data-name="Layer 1" xmlns="http://www.w3.org/2000/svg" viewBox="0 0 120 120"><title>Artboard 18 copy 3</title><path d="M21.6,61.33c-1-3.28-2.25-6.34-2.93-9.52A22.67,22.67,0,0,1,49.12,25.55a101.36,101.36,0,0,1,10.16,4.82,2.27,2.27,0,0,0,2.65,0c5.76-3.43,11.74-6.28,18.64-6.31a22.6,22.6,0,0,1,22.28,25.61c-.48,3.29-1.5,6.49-2.34,10h6.75a6.06,6.06,0,0,1,1.81,0,5.79,5.79,0,0,1,1.43,1c-.47.35-.93,1-1.41,1-2.89.1-5.78,0-8.67.09a2.41,2.41,0,0,0-1.77.87C93.08,72,85.49,79.5,77.1,86.18,72.48,89.85,67.48,93,62.7,96.5a3.11,3.11,0,0,1-3.86.07A117.42,117.42,0,0,1,35.67,78.24C31.48,74,27.92,69.18,24,64.67a3,3,0,0,0-1.94-.94c-3.23-.1-6.45,0-9.68-.06-1,0-2.47.46-2.44-1.23s1.42-1.08,2.34-1.09C15.42,61.3,18.55,61.33,21.6,61.33ZM77.73,58c1.21-1.78,2.18-3.22,3.18-4.64,1.24-1.79,1.92-1.77,3.07.06,1.32,2.07,2.2,5,4.1,6s4.84.25,7.33.27a4,4,0,0,1,.6,0,1.67,1.67,0,0,0,2.07-1.39,74.93,74.93,0,0,0,2.4-8.28A20.16,20.16,0,0,0,78.8,26.59c-6,.56-11.33,3.17-16.32,6.4a2.9,2.9,0,0,1-3.57.08,67.79,67.79,0,0,0-10-5c-14-5.16-27.12,3.19-28.16,17.89-.36,5.16,1.24,9.94,3.72,14.4a2.59,2.59,0,0,0,1.95.88c4.16.08,8.33,0,12.49.08a2.35,2.35,0,0,0,2.47-1.52q3.16-6.41,6.48-12.73a8.18,8.18,0,0,1,1.57-1.6,7.6,7.6,0,0,1,1.42,1.73c2.54,6.35,5,12.73,7.51,19.1.68,1.74,1.4,3.48,2.27,5.64,3-10.34,5.8-20.21,8.71-30A12,12,0,0,1,71,39.17a11.79,11.79,0,0,1,1.77,2.61C74.41,47,76,52.27,77.73,58ZM26.24,63.68c1,1.37,1.6,2.31,2.29,3.21C37.1,78.09,48,86.62,59.71,94.25a2.35,2.35,0,0,0,2.08-.1c3.09-2,6.17-4.07,9.12-6.28,9.07-6.8,17.5-14.24,23.82-23.8.42-.63.78-1.31,1.36-2.27-3.09,0-5.77.11-8.42-.06a3.59,3.59,0,0,1-2.33-1.36,54.15,54.15,0,0,1-3-4.94c-1.17,1.7-2.13,3.23-3.25,4.64A11.88,11.88,0,0,1,77,61.75a10.17,10.17,0,0,1-1.29-2.09c-1.55-4.84-3-9.7-4.64-14.91-.3.9-.5,1.45-.66,2C67.6,56.22,64.84,65.68,62,75.12A7.31,7.31,0,0,1,60.75,77c-.55-.57-1.34-1-1.62-1.73-2.21-5.47-4.33-11-6.48-16.48C51.52,55.86,50.37,53,49,49.62,46.85,54,44.83,57.79,43,61.7a3,3,0,0,1-3.23,2C35.39,63.6,31.05,63.68,26.24,63.68Z"/></svg>