<svg id="Layer_1" data-name="Layer 1" xmlns="http://www.w3.org/2000/svg" viewBox="0 0 120 120"><title>Artboard 20 copy 2</title><path d="M92.64,31.22A44,44,0,0,0,61.4,17.68h-.59A44.34,44.34,0,0,0,29.43,93.34a44,44,0,0,0,31.34,13h0a44.55,44.55,0,0,0,44.33-43.41A44.07,44.07,0,0,0,92.64,31.22ZM60.69,103.68H60.6a41.67,41.67,0,0,1,.23-83.33h.11a41.66,41.66,0,0,1,41.52,42.09A41.85,41.85,0,0,1,60.69,103.68Z"/><path d="M79.56,56a16.17,16.17,0,0,0,.23-5.44,24.1,24.1,0,0,0-1.16-4.81c-.12-.39-.25-.77-.36-1.16a6.65,6.65,0,0,0-12.71,0c-1,3-1.94,6.32-1.57,9.79a7.92,7.92,0,0,0,3.6,6.23,1.19,1.19,0,0,1,.5.93c-.13,3.35-.28,6.7-.43,10l-.07,1.5h0l-.16,3.38c-.14,2.94-.28,5.88-.39,8.83A4.69,4.69,0,0,0,67.36,87a4.91,4.91,0,0,0,5.47,3,4.6,4.6,0,0,0,3.94-4.79q-.15-4.06-.35-8.12l-.24-5.31c-.14-3.3-.28-6.59-.45-9.89a1.34,1.34,0,0,1,.67-1.34A7.15,7.15,0,0,0,79.56,56ZM77,55.17a4.45,4.45,0,0,1-2.86,3.55c-1,.43-1.17.72-1.12,1.82L74.12,85a1.92,1.92,0,0,1-1.3,2.11,2.48,2.48,0,0,1-.95.19,2.06,2.06,0,0,1-1.69-.78,2.51,2.51,0,0,1-.45-1.48c.07-1.86.15-3.72.24-5.57.06-1.32.11-2.63.17-3.94,0-.66,0-1.32,0-2V72.15h.16l.14-3.36c.13-2.86.25-5.73.38-8.59A1.18,1.18,0,0,0,70,58.88,5.23,5.23,0,0,1,66.63,54a18.63,18.63,0,0,1,1.14-7.5c.07-.2.13-.39.19-.59s.12-.42.19-.63a4,4,0,0,1,3.6-2.67,3.87,3.87,0,0,1,3.86,2.54c.11.33.22.66.34,1a18.49,18.49,0,0,1,1.19,4.94A21.38,21.38,0,0,1,77,55.17Z"/><path d="M57.67,48.12c0-2.26,0-4.52,0-6.78a1.34,1.34,0,0,0-2.15-1.14,1.57,1.57,0,0,0-.5,1.23q0,5.91,0,11.82a1.8,1.8,0,0,1-.58,1.38L53,56.1c-.58.59-1.17,1.18-1.77,1.76a1.82,1.82,0,0,0-.61,1.55c.17,3.15.32,6.31.48,9.46l.3,6.13q.26,4.94.5,9.87a2.46,2.46,0,0,1-.62,1.83,2.13,2.13,0,0,1-1.57.65h0a2.11,2.11,0,0,1-1.57-.65,2.42,2.42,0,0,1-.62-1.83q.29-5.78.58-11.57l.29-5.7q.19-4.08.42-8.18a1.78,1.78,0,0,0-.57-1.51c-.64-.61-1.26-1.24-1.88-1.86s-1-1-1.45-1.45a1.72,1.72,0,0,1-.55-1.33q0-5.91,0-11.82a1.62,1.62,0,0,0-.44-1.18,1.21,1.21,0,0,0-.88-.35h0a1.36,1.36,0,0,0-1.32,1.51V46c0,2.82,0,5.63,0,8.45a1.59,1.59,0,0,0,.5,1.21q1.74,1.73,3.45,3.5a1.61,1.61,0,0,1,.43,1.1q-.28,6.13-.59,12.27l-.2,3.93c0,.88-.09,1.75-.14,2.63-.11,2-.23,4.15-.26,6.22a4.63,4.63,0,0,0,1.69,3.62,4.87,4.87,0,0,0,8-4.11c0-1.35-.13-2.69-.2-4l-.16-3.1q-.42-8.7-.84-17.42a1.62,1.62,0,0,1,.42-1.1c1-1,2-2.08,3.35-3.37a1.8,1.8,0,0,0,.6-1.43c0-.78,0-1.56,0-2.34Z"/><path d="M83.37,43a1.25,1.25,0,0,0-1-.49,1.61,1.61,0,0,0-.51.09A1.3,1.3,0,0,0,81,43.82a1.94,1.94,0,0,0,.6,1.27A26.55,26.55,0,0,1,87,67.33,26.19,26.19,0,0,1,79.8,81a1.32,1.32,0,0,0,0,2,1.23,1.23,0,0,0,.92.38,1.47,1.47,0,0,0,1-.47A28.85,28.85,0,0,0,90.3,63a30.56,30.56,0,0,0-3.43-14.77A28.33,28.33,0,0,0,83.37,43Z"/><path d="M41.49,80.64c-.13-.13-.26-.26-.38-.4a26.64,26.64,0,0,1-6.66-23.38A25.59,25.59,0,0,1,39,46.31a1.35,1.35,0,0,0,.3-1.11,1.2,1.2,0,0,0-1-1.06,1.31,1.31,0,0,0-1.48.6A29.67,29.67,0,0,0,31.29,62,29.57,29.57,0,0,0,39.86,82.8a1.33,1.33,0,0,0,1.89.06,1.31,1.31,0,0,0,0-1.92Z"/><path d="M68.69,35.07A1.28,1.28,0,0,0,68.62,34a1.33,1.33,0,0,0-.89-.66,28.49,28.49,0,0,0-6.91-.83h0a29.3,29.3,0,0,0-10.13,1.8,2.29,2.29,0,0,0-.88.58,1.26,1.26,0,0,0,0,1.54,1.32,1.32,0,0,0,1.61.43,27.7,27.7,0,0,1,9.6-1.7,29,29,0,0,1,6.21.76A1.26,1.26,0,0,0,68.69,35.07Z"/></svg>