<svg id="Layer_1" data-name="Layer 1" xmlns="http://www.w3.org/2000/svg" viewBox="0 0 120 120"><title>Artboard 19 copy 3</title><path d="M65.05,56.46c-2-1.8-3.93-3.42-5.77-5.07s-1.91-2.8.38-3.91q18.53-9,37.11-17.83c.7-.34,1.73,0,2.6.08-.22.84-.2,1.89-.71,2.49-5.34,6.26-10.77,12.45-16.18,18.65-.78.9-1.54,1.81-2.47,2.9l6,5.29c1.14,1,1.76,2.08.43,3.18-2.46-2.23-4.79-4.44-7.23-6.53-1.5-1.27-1.5-2.32-.2-3.78,5-5.68,10-11.42,15-17.15a5.5,5.5,0,0,0,1.35-2.34L60,49.44,65.19,54c2.37,2.06,2.43,2.53.43,4.83Q58.3,67.26,51,75.64A4.5,4.5,0,0,0,49.8,77.8L83.65,61.53l1.08,1.6C72.55,69,60.48,74.83,48.37,80.58a7.11,7.11,0,0,1-2.63.13c.21-.91.12-2.06.66-2.69,5.6-6.57,11.3-13,17-19.56C63.88,57.87,64.38,57.26,65.05,56.46Z"/><path d="M48.12,44.5c-2.9,0-5.35-.06-7.79,0-1.76,0-2.48-.66-2.35-2.42.1-1.36,0-2.72.06-4.08,0-.38.43-.73.66-1.1.34.34,1,.67,1,1,.11,1.42,0,2.85,0,4.62,2.79,0,5.32,0,7.86,0s3.24.94,2,3.2q-7.94,14.51-16,28.94c-.37.67-1.4,1-2.13,1.43a7.27,7.27,0,0,1-1-2.42c-.09-6.32-.05-12.64-.05-19v-2.6c-2.76,0-5.3,0-7.83,0s-3.18-1-2-3.09Q28.6,34.26,36.86,19.51a2.07,2.07,0,0,1,1.69-.87,1.91,1.91,0,0,1,1.14,1.45c.12,2.8.11,5.6,0,8.4,0,.45-.63.89-1,1.33-.24-.5-.68-1-.7-1.51a28.85,28.85,0,0,0-.57-6L22.05,50.26h7.12c3,0,3.15.11,3.15,3.07,0,6.29,0,12.59.42,19C37.8,63.22,42.85,54.06,48.12,44.5Z"/><path d="M67.92,90.76c-.28-2.32-.55-4.29-.75-6.27-.23-2.19.59-2.87,2.58-2.08,8.47,3.34,16.93,6.69,25.35,10.12.64.26,1,1.17,1.51,1.77-.61.4-1.18,1.06-1.83,1.16-4.9.7-9.82,1.29-14.73,1.93-.93.12-1.84.3-2.89.48.27,2.26.59,4.31.73,6.36s-.68,2.66-2.61,1.9q-12.7-5-25.34-10.13c-.63-.26-1-1.18-1.47-1.8.62-.39,1.2-1,1.86-1.13C56.09,92.26,61.87,91.54,67.92,90.76ZM76,104.36c-.25-2.09-.3-3.85-.68-5.54-.48-2.12.3-2.83,2.37-3,4.87-.51,9.72-1.23,14.59-1.87l.09-.46L69.08,84.19c.24,1.92.42,3.41.6,4.9.37,3,.23,3.3-2.75,3.71-4.68.65-9.37,1.22-14.06,1.83l-.07.51Z"/></svg>