<?xml version="1.0" encoding="UTF-8" standalone="no"?>
<svg
   xmlns:dc="http://purl.org/dc/elements/1.1/"
   xmlns:cc="http://creativecommons.org/ns#"
   xmlns:rdf="http://www.w3.org/1999/02/22-rdf-syntax-ns#"
   xmlns:svg="http://www.w3.org/2000/svg"
   xmlns="http://www.w3.org/2000/svg"
   xmlns:sodipodi="http://sodipodi.sourceforge.net/DTD/sodipodi-0.dtd"
   xmlns:inkscape="http://www.inkscape.org/namespaces/inkscape"
   version="1.1"
   id="Layer_1"
   x="0px"
   y="0px"
   viewBox="0 0 52.200001 44.5"
   xml:space="preserve"
   sodipodi:docname="icono_musica.svg"
   width="52.200001"
   height="44.5"
   inkscape:version="1.0.2-2 (e86c870879, 2021-01-15)"><metadata
   id="metadata19"><rdf:RDF><cc:Work
       rdf:about=""><dc:format>image/svg+xml</dc:format><dc:type
         rdf:resource="http://purl.org/dc/dcmitype/StillImage" /><dc:title></dc:title></cc:Work></rdf:RDF></metadata><defs
   id="defs17" /><sodipodi:namedview
   pagecolor="#ffffff"
   bordercolor="#666666"
   borderopacity="1"
   objecttolerance="10"
   gridtolerance="10"
   guidetolerance="10"
   inkscape:pageopacity="0"
   inkscape:pageshadow="2"
   inkscape:window-width="1366"
   inkscape:window-height="705"
   id="namedview15"
   showgrid="false"
   lock-margins="true"
   fit-margin-top="2"
   fit-margin-left="2"
   fit-margin-right="2"
   fit-margin-bottom="2"
   inkscape:zoom="4.4833333"
   inkscape:cx="24.3"
   inkscape:cy="27.4"
   inkscape:window-x="-8"
   inkscape:window-y="-8"
   inkscape:window-maximized="1"
   inkscape:current-layer="Layer_1" />
<style
   type="text/css"
   id="style2">
	.st0{fill:url(#SVGID_1_);}
	.st1{fill:url(#SVGID_2_);}
	.st2{fill:url(#SVGID_3_);}
	.st3{fill:url(#SVGID_4_);}
	.st4{fill:url(#SVGID_5_);}
	.st5{fill:url(#SVGID_6_);}
	.st6{fill:url(#SVGID_7_);}
	.st7{fill:url(#SVGID_8_);}
	.st8{fill:url(#SVGID_9_);}
	.st9{fill:url(#SVGID_10_);}
	.st10{fill:#FFFFFF;}
	.st11{fill:url(#SVGID_11_);}
	.st12{fill:url(#SVGID_12_);}
	.st13{fill:url(#SVGID_13_);}
	.st14{fill:url(#SVGID_14_);}
	.st15{fill:url(#SVGID_15_);}
	.st16{fill:url(#SVGID_16_);}
</style>
<g
   id="g12"
   transform="translate(-35.7,-32.6)">
	<g
   id="g10">
		<path
   class="st10"
   d="m 48.2,56.8 v 16.5 c 0,1 0.8,1.8 1.8,1.8 1,0 1.8,-0.8 1.8,-1.8 V 56.8 C 51.8,55.8 51,55 50,55 c -1,0 -1.8,0.8 -1.8,1.8 z"
   id="path4" />
		<path
   class="st10"
   d="m 42.7,75.1 h 3.9 V 55.5 c 0,-0.1 0,-0.2 0,-0.3 0,-8.4 6.8,-15.3 15.2,-15.3 8.4,0 15.2,6.9 15.2,15.3 0,0.1 0,0.3 0,0.4 v 19.5 h 4 c 2.7,0 4.9,-2.3 4.9,-5.1 V 59.8 c 0,-2.3 -1.5,-4.3 -3.6,-4.9 C 82.1,43.7 73,34.6 61.8,34.6 c -11.2,0 -20.3,9.1 -20.5,20.3 -2.1,0.6 -3.6,2.6 -3.6,4.9 V 70 c 0,2.8 2.2,5.1 5,5.1 z"
   id="path6" />
		<path
   class="st10"
   d="m 71.8,56.8 v 16.5 c 0,1 0.8,1.8 1.8,1.8 1,0 1.8,-0.8 1.8,-1.8 V 56.8 c 0,-1 -0.8,-1.8 -1.8,-1.8 -1,0 -1.8,0.8 -1.8,1.8 z"
   id="path8" />
	</g>
</g>
</svg>
