<?xml version="1.0" encoding="UTF-8" standalone="no"?>
<svg
   xmlns:dc="http://purl.org/dc/elements/1.1/"
   xmlns:cc="http://creativecommons.org/ns#"
   xmlns:rdf="http://www.w3.org/1999/02/22-rdf-syntax-ns#"
   xmlns:svg="http://www.w3.org/2000/svg"
   xmlns="http://www.w3.org/2000/svg"
   xmlns:sodipodi="http://sodipodi.sourceforge.net/DTD/sodipodi-0.dtd"
   xmlns:inkscape="http://www.inkscape.org/namespaces/inkscape"
   version="1.1"
   id="Layer_1"
   x="0px"
   y="0px"
   viewBox="0 0 39.233332 39.133334"
   xml:space="preserve"
   sodipodi:docname="icono_categorias.svg"
   width="29.424999pt"
   height="29.35pt"
   inkscape:version="1.0.2-2 (e86c870879, 2021-01-15)"><metadata
   id="metadata19"><rdf:RDF><cc:Work
       rdf:about=""><dc:format>image/svg+xml</dc:format><dc:type
         rdf:resource="http://purl.org/dc/dcmitype/StillImage" /><dc:title></dc:title></cc:Work></rdf:RDF></metadata><defs
   id="defs17" /><sodipodi:namedview
   pagecolor="#ffffff"
   bordercolor="#666666"
   borderopacity="1"
   objecttolerance="10"
   gridtolerance="10"
   guidetolerance="10"
   inkscape:pageopacity="0"
   inkscape:pageshadow="2"
   inkscape:window-width="1366"
   inkscape:window-height="705"
   id="namedview15"
   showgrid="false"
   inkscape:snap-path-clip="false"
   inkscape:snap-path-mask="false"
   inkscape:zoom="1.5850977"
   inkscape:cx="76.748551"
   inkscape:cy="-67.879235"
   inkscape:window-x="-8"
   inkscape:window-y="-8"
   inkscape:window-maximized="1"
   inkscape:current-layer="Layer_1"
   lock-margins="false"
   units="pt"
   fit-margin-top="2"
   fit-margin-left="2"
   fit-margin-right="2"
   fit-margin-bottom="2" />
<style
   type="text/css"
   id="style2">
	.st0{fill:url(#SVGID_1_);}
	.st1{fill:url(#SVGID_2_);}
	.st2{fill:url(#SVGID_3_);}
	.st3{fill:url(#SVGID_4_);}
	.st4{fill:url(#SVGID_5_);}
	.st5{fill:url(#SVGID_6_);}
	.st6{fill:url(#SVGID_7_);}
	.st7{fill:url(#SVGID_8_);}
	.st8{fill:url(#SVGID_9_);}
	.st9{fill:url(#SVGID_10_);}
	.st10{fill:#FFFFFF;}
	.st11{fill:url(#SVGID_11_);}
	.st12{fill:url(#SVGID_12_);}
	.st13{fill:url(#SVGID_13_);}
	.st14{fill:url(#SVGID_14_);}
	.st15{fill:url(#SVGID_15_);}
	.st16{fill:url(#SVGID_16_);}
</style>
<g
   id="g12"
   transform="translate(-40.433333,-40.433333)">
	<path
   class="st10"
   d="m 43.1,66.5 v 6.9 c 0,1.9 1.6,3.5 3.5,3.5 h 6.9 c 1.9,0 3.5,-1.6 3.5,-3.5 V 66.5 C 57,64.6 55.4,63 53.5,63 h -6.9 c -2,0.1 -3.5,1.6 -3.5,3.5 z"
   id="path4" />
	<path
   class="st10"
   d="m 43.1,46.6 v 6.8 c 0,1.9 1.6,3.5 3.5,3.5 h 6.8 c 1.9,0 3.5,-1.6 3.5,-3.5 v -6.8 c 0,-1.9 -1.6,-3.5 -3.5,-3.5 h -6.8 c -2,0 -3.5,1.5 -3.5,3.5 z"
   id="path6" />
	<path
   class="st10"
   d="m 63.1,66.5 v 6.9 c 0,1.9 1.6,3.5 3.5,3.5 h 6.9 c 1.9,0 3.5,-1.6 3.5,-3.5 V 66.5 C 77,64.6 75.4,63 73.5,63 h -6.9 c -2,0.1 -3.5,1.6 -3.5,3.5 z"
   id="path8" />
	<path
   class="st10"
   d="m 63.1,46.6 v 6.8 c 0,1.9 1.6,3.5 3.5,3.5 h 6.8 c 1.9,0 3.5,-1.6 3.5,-3.5 v -6.8 c 0,-1.9 -1.6,-3.5 -3.5,-3.5 h -6.8 c -2,0 -3.5,1.5 -3.5,3.5 z"
   id="path10" />
</g>
</svg>
