<?xml version="1.0" encoding="UTF-8" standalone="no"?>
<svg
   xmlns:dc="http://purl.org/dc/elements/1.1/"
   xmlns:cc="http://creativecommons.org/ns#"
   xmlns:rdf="http://www.w3.org/1999/02/22-rdf-syntax-ns#"
   xmlns:svg="http://www.w3.org/2000/svg"
   xmlns="http://www.w3.org/2000/svg"
   xmlns:sodipodi="http://sodipodi.sourceforge.net/DTD/sodipodi-0.dtd"
   xmlns:inkscape="http://www.inkscape.org/namespaces/inkscape"
   version="1.1"
   id="Layer_1"
   x="0px"
   y="0px"
   viewBox="0 0 32.033333 43.233332"
   xml:space="preserve"
   sodipodi:docname="icono_midiario.svg"
   width="24.025pt"
   height="32.424999pt"
   inkscape:version="1.0.2-2 (e86c870879, 2021-01-15)"><metadata
   id="metadata21"><rdf:RDF><cc:Work
       rdf:about=""><dc:format>image/svg+xml</dc:format><dc:type
         rdf:resource="http://purl.org/dc/dcmitype/StillImage" /><dc:title></dc:title></cc:Work></rdf:RDF></metadata><defs
   id="defs19" /><sodipodi:namedview
   pagecolor="#ffffff"
   bordercolor="#666666"
   borderopacity="1"
   objecttolerance="10"
   gridtolerance="10"
   guidetolerance="10"
   inkscape:pageopacity="0"
   inkscape:pageshadow="2"
   inkscape:window-width="876"
   inkscape:window-height="480"
   id="namedview17"
   showgrid="false"
   units="pt"
   lock-margins="true"
   fit-margin-top="2"
   fit-margin-left="2"
   fit-margin-right="2"
   fit-margin-bottom="2"
   inkscape:zoom="0.5"
   inkscape:cx="10.866667"
   inkscape:cy="23.066667"
   inkscape:window-x="0"
   inkscape:window-y="0"
   inkscape:window-maximized="0"
   inkscape:current-layer="Layer_1" />
<style
   type="text/css"
   id="style2">
	.st0{fill:url(#SVGID_1_);}
	.st1{fill:url(#SVGID_2_);}
	.st2{fill:url(#SVGID_3_);}
	.st3{fill:url(#SVGID_4_);}
	.st4{fill:url(#SVGID_5_);}
	.st5{fill:url(#SVGID_6_);}
	.st6{fill:url(#SVGID_7_);}
	.st7{fill:url(#SVGID_8_);}
	.st8{fill:url(#SVGID_9_);}
	.st9{fill:url(#SVGID_10_);}
	.st10{fill:#FFFFFF;}
	.st11{fill:url(#SVGID_11_);}
	.st12{fill:url(#SVGID_12_);}
	.st13{fill:url(#SVGID_13_);}
	.st14{fill:url(#SVGID_14_);}
	.st15{fill:url(#SVGID_15_);}
	.st16{fill:url(#SVGID_16_);}
</style>
<g
   id="g14"
   transform="translate(-49.133333,-36.933333)">
	<g
   id="g12">
		<path
   class="st10"
   d="m 54.3,72.4 c -0.1,0 -0.1,-0.1 -0.1,-0.1 v -2 h -0.7 c -0.6,0 -1.1,-0.1 -1.6,-0.3 v 2.3 c 0,1.3 0.9,2.6 2.3,2.6 0.4,0 2,0 2,0 v -2.4 z"
   id="path4" />
		<path
   class="st10"
   d="m 75.9,69.6 c -0.4,1.6 -1.8,2.7 -3.5,2.7 h -7.3 v 2.4 h 7.3 c 3.4,0 6.1,-2.7 6.1,-6.1 V 68 c -0.7,0.7 -1.6,1.3 -2.6,1.6 z"
   id="path6" />
		<path
   class="st10"
   d="M 73,39.6 H 53.4 c -0.9,0 -1.6,0.7 -1.6,1.5 v 25 c 0,0.9 0.7,1.6 1.6,1.6 H 73 c 3,0 5.5,-2.5 5.5,-5.5 V 45.1 c 0,-3 -2.5,-5.5 -5.5,-5.5 z"
   id="path8" />
		<path
   class="st10"
   d="m 57.7,77 c 0,0.2 0.1,0.3 0.3,0.4 0.1,0 0.1,0.1 0.2,0.1 0.1,0 0.2,0 0.3,-0.1 l 1.8,-1.3 C 60.4,76 60.5,76 60.6,76 c 0.1,0 0.2,0 0.3,0.1 l 1.8,1.3 c 0.1,0.1 0.2,0.1 0.3,0.1 0.1,0 0.2,0 0.2,-0.1 0.2,-0.1 0.3,-0.3 0.3,-0.4 V 70.2 H 57.8 V 77 Z"
   id="path10" />
	</g>
</g>
</svg>
