<?xml version="1.0" encoding="UTF-8" standalone="no"?>
<svg
   xmlns:dc="http://purl.org/dc/elements/1.1/"
   xmlns:cc="http://creativecommons.org/ns#"
   xmlns:rdf="http://www.w3.org/1999/02/22-rdf-syntax-ns#"
   xmlns:svg="http://www.w3.org/2000/svg"
   xmlns="http://www.w3.org/2000/svg"
   xmlns:sodipodi="http://sodipodi.sourceforge.net/DTD/sodipodi-0.dtd"
   xmlns:inkscape="http://www.inkscape.org/namespaces/inkscape"
   version="1.1"
   id="Layer_1"
   x="0px"
   y="0px"
   viewBox="0 0 29.400108 49.212545"
   xml:space="preserve"
   sodipodi:docname="icono_parati.svg"
   width="22.050081pt"
   height="36.909409pt"
   inkscape:version="1.0.2-2 (e86c870879, 2021-01-15)"><metadata
   id="metadata17"><rdf:RDF><cc:Work
       rdf:about=""><dc:format>image/svg+xml</dc:format><dc:type
         rdf:resource="http://purl.org/dc/dcmitype/StillImage" /><dc:title></dc:title></cc:Work></rdf:RDF></metadata><defs
   id="defs15" /><sodipodi:namedview
   pagecolor="#ffffff"
   bordercolor="#666666"
   borderopacity="1"
   objecttolerance="10"
   gridtolerance="10"
   guidetolerance="10"
   inkscape:pageopacity="0"
   inkscape:pageshadow="2"
   inkscape:window-width="1366"
   inkscape:window-height="705"
   id="namedview13"
   showgrid="false"
   units="pt"
   fit-margin-top="2"
   fit-margin-bottom="2"
   fit-margin-right="2"
   fit-margin-left="2"
   lock-margins="true"
   inkscape:zoom="4.4833333"
   inkscape:cx="15.279605"
   inkscape:cy="16.819507"
   inkscape:window-x="-8"
   inkscape:window-y="-8"
   inkscape:window-maximized="1"
   inkscape:current-layer="Layer_1" />
<style
   type="text/css"
   id="style2">
	.st0{fill:url(#SVGID_1_);}
	.st1{fill:url(#SVGID_2_);}
	.st2{fill:url(#SVGID_3_);}
	.st3{fill:url(#SVGID_4_);}
	.st4{fill:url(#SVGID_5_);}
	.st5{fill:url(#SVGID_6_);}
	.st6{fill:url(#SVGID_7_);}
	.st7{fill:url(#SVGID_8_);}
	.st8{fill:url(#SVGID_9_);}
	.st9{fill:url(#SVGID_10_);}
	.st10{fill:#FFFFFF;}
	.st11{fill:url(#SVGID_11_);}
	.st12{fill:url(#SVGID_12_);}
	.st13{fill:url(#SVGID_13_);}
	.st14{fill:url(#SVGID_14_);}
	.st15{fill:url(#SVGID_15_);}
	.st16{fill:url(#SVGID_16_);}
</style>
<g
   id="g10"
   transform="translate(-44.720395,-34.25856)">
	<path
   class="st10"
   d="M 68.4,63.1 C 65.4,60 62.3,57 59.2,53.9 58.5,53.2 57.8,52.4 57,51.7 c -0.8,-0.7 -1.8,-0.6 -2.5,0 -0.8,0.7 -0.8,1.7 -0.2,2.6 0.2,0.2 0.4,0.5 0.6,0.7 3,3 6.1,6.1 9.1,9.1 0.4,0.4 0.9,0.8 1.2,1.3 0.2,0.3 0.2,1 0,1.2 -0.2,0.2 -0.9,0.2 -1.2,0.1 -0.4,-0.1 -0.6,-0.5 -0.9,-0.8 -2.3,-2.3 -4.6,-4.6 -6.9,-6.9 -1,-1 -2.1,-1.1 -3,-0.3 -0.9,0.9 -0.8,2 0.3,3.1 1.1,1.1 2.2,2.2 3.3,3.3 1.4,1.4 2.8,2.8 4.2,4.2 0.4,0.4 0.6,0.9 0.1,1.4 -0.5,0.5 -1,0.4 -1.5,-0.1 C 59.4,70.4 59.2,70.2 59,70 57.1,68.1 55.2,66.1 53.2,64.2 52.7,63.8 52,63.4 51.4,63.4 c -0.6,0.1 -1.2,0.6 -1.6,1.1 -0.5,0.7 -0.2,1.5 0.4,2.1 1.7,1.7 3.4,3.4 5.1,5.1 0.6,0.6 1.2,1.1 1.6,1.7 0.2,0.3 0.1,1 -0.1,1.2 -0.2,0.2 -0.8,0.2 -1.2,0.1 -0.3,-0.1 -0.5,-0.4 -0.8,-0.7 -1.4,-1.4 -2.7,-2.7 -4.1,-4.1 -0.6,-0.6 -1.4,-0.8 -2.1,-0.4 -0.5,0.3 -1.1,1 -1.2,1.6 -0.1,0.5 0.4,1.2 0.8,1.7 1.7,1.8 3.5,3.6 5.4,5.4 1.8,1.7 3.9,2.6 6.4,2.6 3.3,0.1 5.7,-1.5 7.9,-3.7 4.6,-4 4.7,-9.8 0.5,-14 z"
   id="path4" />
	<path
   class="st10"
   d="m 65,50.9 c -1,0.9 -1.9,2 -2.8,2.9 0.8,0.9 1.6,1.8 2.3,2.6 1,-1 2.1,-1.9 3,-2.9 0.6,-0.7 0.4,-1.8 -0.2,-2.4 -0.6,-0.6 -1.7,-0.8 -2.3,-0.2 z"
   id="path6" />
	<path
   class="st10"
   d="m 59.9,48.2 c 0.5,0.5 1,0.5 1.5,0 1.8,-1.8 3.6,-3.5 5.3,-5.3 1.2,-1.3 1.1,-3.1 -0.1,-4.5 -1.1,-1.4 -2.7,-1.8 -4.3,-1.1 -0.6,0.3 -1.1,0.6 -1.6,0.9 -0.3,-0.2 -0.5,-0.4 -0.8,-0.6 -1.6,-1.1 -3.6,-0.8 -4.9,0.5 -1.3,1.4 -1.4,3.5 -0.1,5 1.5,1.8 3.3,3.4 5,5.1 z"
   id="path8" />
</g>
</svg>
