<?xml version="1.0" encoding="UTF-8" standalone="no"?>
<svg
   xmlns:dc="http://purl.org/dc/elements/1.1/"
   xmlns:cc="http://creativecommons.org/ns#"
   xmlns:rdf="http://www.w3.org/1999/02/22-rdf-syntax-ns#"
   xmlns:svg="http://www.w3.org/2000/svg"
   xmlns="http://www.w3.org/2000/svg"
   xmlns:sodipodi="http://sodipodi.sourceforge.net/DTD/sodipodi-0.dtd"
   xmlns:inkscape="http://www.inkscape.org/namespaces/inkscape"
   version="1.1"
   id="Layer_1"
   x="0px"
   y="0px"
   viewBox="0 0 44.533335 44.533335"
   xml:space="preserve"
   sodipodi:docname="icono_configuracion.svg"
   width="33.400002pt"
   height="33.400002pt"
   inkscape:version="1.0.2-2 (e86c870879, 2021-01-15)"><metadata
   id="metadata11"><rdf:RDF><cc:Work
       rdf:about=""><dc:format>image/svg+xml</dc:format><dc:type
         rdf:resource="http://purl.org/dc/dcmitype/StillImage" /><dc:title></dc:title></cc:Work></rdf:RDF></metadata><defs
   id="defs9" /><sodipodi:namedview
   pagecolor="#ffffff"
   bordercolor="#666666"
   borderopacity="1"
   objecttolerance="10"
   gridtolerance="10"
   guidetolerance="10"
   inkscape:pageopacity="0"
   inkscape:pageshadow="2"
   inkscape:window-width="1366"
   inkscape:window-height="705"
   id="namedview7"
   showgrid="false"
   units="pt"
   lock-margins="true"
   fit-margin-top="2"
   fit-margin-left="2"
   fit-margin-right="2"
   fit-margin-bottom="2"
   inkscape:zoom="4.4833333"
   inkscape:cx="22.666667"
   inkscape:cy="21.666667"
   inkscape:window-x="-8"
   inkscape:window-y="-8"
   inkscape:window-maximized="1"
   inkscape:current-layer="Layer_1" />
<style
   type="text/css"
   id="style2">
	.st0{fill:url(#SVGID_1_);}
	.st1{fill:url(#SVGID_2_);}
	.st2{fill:url(#SVGID_3_);}
	.st3{fill:url(#SVGID_4_);}
	.st4{fill:url(#SVGID_5_);}
	.st5{fill:url(#SVGID_6_);}
	.st6{fill:url(#SVGID_7_);}
	.st7{fill:url(#SVGID_8_);}
	.st8{fill:url(#SVGID_9_);}
	.st9{fill:url(#SVGID_10_);}
	.st10{fill:#FFFFFF;}
	.st11{fill:url(#SVGID_11_);}
	.st12{fill:url(#SVGID_12_);}
	.st13{fill:url(#SVGID_13_);}
	.st14{fill:url(#SVGID_14_);}
	.st15{fill:url(#SVGID_15_);}
	.st16{fill:url(#SVGID_16_);}
</style>
<path
   class="st10"
   d="m 17.866667,3.5666667 -0.7,3 c -0.8,0.3 -1.6,0.6 -2.3,1 l -2.6,-1.7 c -0.5,-0.3 -1.1,-0.2 -1.5,0.2 L 6.0666667,10.766667 c -0.4,0.4 -0.5,1 -0.2,1.5 l 1.7,2.6 c -0.4,0.8 -0.7,1.5 -1,2.3 l -3,0.7 c -0.5,0.1 -0.9,0.6 -0.9,1.1 v 6.6 c 0,0.6 0.4,1 0.9,1.1 l 3,0.7 c 0.3,0.8 0.6,1.6 1,2.3 l -1.7,2.6 c -0.3,0.5 -0.2,1.1 0.2,1.5 l 4.7000003,4.7 c 0.4,0.4 1,0.5 1.5,0.2 l 2.6,-1.7 c 0.8,0.4 1.5,0.7 2.3,1 l 0.7,3 c 0.1,0.5 0.6,0.9 1.1,0.9 h 6.6 c 0.6,0 1,-0.4 1.1,-0.9 l 0.7,-3 c 0.8,-0.3 1.6,-0.6 2.3,-1 l 2.6,1.7 c 0.5,0.3 1.1,0.2 1.5,-0.2 l 4.7,-4.7 c 0.4,-0.4 0.5,-1 0.2,-1.5 l -1.7,-2.6 c 0.4,-0.8 0.7,-1.5 1,-2.3 l 3,-0.7 c 0.5,-0.1 0.9,-0.6 0.9,-1.1 v -6.6 c 0,-0.6 -0.4,-1 -0.9,-1.1 l -3,-0.7 c -0.3,-0.8 -0.6,-1.6 -1,-2.3 l 1.7,-2.6 c 0.3,-0.5 0.2,-1.1 -0.2,-1.5 l -4.7,-4.7000003 c -0.4,-0.4 -1,-0.5 -1.5,-0.2 l -2.6,1.7 c -0.8,-0.4 -1.5,-0.7 -2.3,-1 l -0.7,-3 c 0,-0.5 -0.5,-0.9 -1.1,-0.9 h -6.6 c -0.6,0 -1,0.4 -1.1,0.9 z m 4.4,11.7000003 c 3.9,0 7,3.1 7,7 0,3.9 -3.1,7 -7,7 -3.9,0 -7,-3.1 -7,-7 0,-3.9 3.1,-7 7,-7 z"
   id="path4" />
</svg>
