<?xml version="1.0" encoding="utf-8"?>
<!-- Generator: Adobe Illustrator 24.2.0, SVG Export Plug-In . SVG Version: 6.00 Build 0)  -->
<svg version="1.1" id="Layer_1" xmlns="http://www.w3.org/2000/svg" xmlns:xlink="http://www.w3.org/1999/xlink" x="0px" y="0px"
	 viewBox="0 0 1100.7 154.4" style="enable-background:new 0 0 1100.7 154.4;" xml:space="preserve">
<style type="text/css">
	.st0{fill:url(#SVGID_1_);}
	.st1{fill:url(#SVGID_2_);}
	.st2{fill:url(#SVGID_3_);}
	.st3{fill:url(#SVGID_4_);}
	.st4{fill:url(#SVGID_5_);}
	.st5{fill:url(#SVGID_6_);}
	.st6{fill:url(#SVGID_7_);}
	.st7{fill:url(#SVGID_8_);}
	.st8{fill:url(#SVGID_9_);}
	.st9{fill:url(#SVGID_10_);}
	.st10{fill:#FFFFFF;}
	.st11{fill:url(#SVGID_11_);}
	.st12{fill:url(#SVGID_12_);}
	.st13{fill:url(#SVGID_13_);}
	.st14{fill:url(#SVGID_14_);}
	.st15{fill:url(#SVGID_15_);}
	.st16{fill:url(#SVGID_16_);}
</style>
<g>
	<linearGradient id="SVGID_1_" gradientUnits="userSpaceOnUse" x1="0" y1="77.2161" x2="1100.7488" y2="77.2161">
		<stop  offset="0.3741" style="stop-color:#00C0C8"/>
		<stop  offset="1" style="stop-color:#0380E5"/>
	</linearGradient>
	<path class="st0" d="M391.1,50.6L391.1,50.6c-21,0-26.6-13.2-27.3-15c0-0.1,0-0.1-0.1-0.2c0,0,0,0,0,0l0,0
		C355.9,14.7,335.9,0,312.4,0c-23.5,0-43.5,14.7-51.4,35.5l0,0c0,0,0,0,0,0c-0.2,0.6-0.4,1.1-0.6,1.7c-4.2,10.6-14,13.1-19.9,13.6
		l-4.8,0h0l0,0L0,50.8l0.4,103.7h1100.3c0,0,0-104.4,0-104.4L391.1,50.6z"/>
</g>
</svg>
