<?xml version="1.0" encoding="utf-8"?>
<!-- Generator: Adobe Illustrator 24.2.0, SVG Export Plug-In . SVG Version: 6.00 Build 0)  -->
<svg version="1.1" id="Layer_1" xmlns="http://www.w3.org/2000/svg" xmlns:xlink="http://www.w3.org/1999/xlink" x="0px" y="0px"
	 viewBox="0 0 1081.6 151.7" style="enable-background:new 0 0 1081.6 151.7;" xml:space="preserve">
<style type="text/css">
	.st0{fill:url(#SVGID_1_);}
	.st1{fill:url(#SVGID_2_);}
	.st2{fill:url(#SVGID_3_);}
	.st3{fill:url(#SVGID_4_);}
	.st4{fill:url(#SVGID_5_);}
	.st5{fill:url(#SVGID_6_);}
	.st6{fill:url(#SVGID_7_);}
	.st7{fill:url(#SVGID_8_);}
	.st8{fill:url(#SVGID_9_);}
	.st9{fill:url(#SVGID_10_);}
	.st10{fill:#FFFFFF;}
	.st11{fill:url(#SVGID_11_);}
	.st12{fill:url(#SVGID_12_);}
	.st13{fill:url(#SVGID_13_);}
	.st14{fill:url(#SVGID_14_);}
	.st15{fill:url(#SVGID_15_);}
	.st16{fill:url(#SVGID_16_);}
</style>
<g>
	<linearGradient id="SVGID_1_" gradientUnits="userSpaceOnUse" x1="0" y1="75.8715" x2="1081.5802" y2="75.8715">
		<stop  offset="0.3741" style="stop-color:#00C0C8"/>
		<stop  offset="1" style="stop-color:#0380E5"/>
	</linearGradient>
	<path class="st0" d="M1023.7,49.7L1023.7,49.7c-20.7,0-26.1-13-26.8-14.7c0-0.1,0-0.1-0.1-0.2c0,0,0,0,0,0l0,0
		C989.1,14.5,969.4,0,946.3,0c-23.1,0-42.8,14.5-50.5,34.8l0,0c0,0,0,0,0,0c-0.2,0.5-0.4,1.1-0.6,1.7c-4.1,10.5-13.7,12.9-19.6,13.3
		l-4.7,0h0l0,0l-871,0l0.4,101.9h1081.2c0,0,0-102.6,0-102.6L1023.7,49.7z"/>
</g>
</svg>
