<?xml version="1.0" encoding="utf-8"?>
<!-- Generator: Adobe Illustrator 24.2.0, SVG Export Plug-In . SVG Version: 6.00 Build 0)  -->
<svg version="1.1" id="Layer_1" xmlns="http://www.w3.org/2000/svg" xmlns:xlink="http://www.w3.org/1999/xlink" x="0px" y="0px"
	 viewBox="0 0 1102.7 154.7" style="enable-background:new 0 0 1102.7 154.7;" xml:space="preserve">
<style type="text/css">
	.st0{fill:url(#SVGID_1_);}
	.st1{fill:url(#SVGID_2_);}
	.st2{fill:url(#SVGID_3_);}
	.st3{fill:url(#SVGID_4_);}
	.st4{fill:url(#SVGID_5_);}
	.st5{fill:url(#SVGID_6_);}
	.st6{fill:url(#SVGID_7_);}
	.st7{fill:url(#SVGID_8_);}
	.st8{fill:url(#SVGID_9_);}
	.st9{fill:url(#SVGID_10_);}
	.st10{fill:#FFFFFF;}
	.st11{fill:url(#SVGID_11_);}
	.st12{fill:url(#SVGID_12_);}
	.st13{fill:url(#SVGID_13_);}
	.st14{fill:url(#SVGID_14_);}
	.st15{fill:url(#SVGID_15_);}
	.st16{fill:url(#SVGID_16_);}
</style>
<g>
	<linearGradient id="SVGID_1_" gradientUnits="userSpaceOnUse" x1="0" y1="77.3518" x2="1102.6823" y2="77.3518">
		<stop  offset="0.3741" style="stop-color:#00C0C8"/>
		<stop  offset="1" style="stop-color:#0380E5"/>
	</linearGradient>
	<path class="st0" d="M721.7,50.7L721.7,50.7c-21.1,0-26.7-13.3-27.3-15c0-0.1,0-0.1-0.1-0.2c0,0,0,0,0,0l0,0
		C686.5,14.8,666.4,0,642.9,0c-23.5,0-43.6,14.8-51.5,35.5l0,0c0,0,0,0,0,0c-0.2,0.6-0.4,1.1-0.6,1.7c-4.2,10.7-14,13.1-19.9,13.6
		l-4.8,0h0l0,0L0,50.9l0.4,103.8h1102.3c0,0,0-104.6,0-104.6L721.7,50.7z"/>
</g>
</svg>
